<svg xmlns="http://www.w3.org/2000/svg" viewBox="0 0 500 500"><g id="freepik--background-complete--inject-13"><rect y="382.4" width="500" height="0.25" style="fill:#ebebeb"></rect><rect x="416.78" y="398.49" width="33.12" height="0.25" style="fill:#ebebeb"></rect><rect x="322.53" y="401.21" width="8.69" height="0.25" style="fill:#ebebeb"></rect><rect x="396.59" y="389.21" width="19.19" height="0.25" style="fill:#ebebeb"></rect><rect x="52.46" y="390.89" width="43.19" height="0.25" style="fill:#ebebeb"></rect><rect x="104.56" y="390.89" width="6.33" height="0.25" style="fill:#ebebeb"></rect><rect x="131.47" y="395.11" width="93.68" height="0.25" style="fill:#ebebeb"></rect><path d="M237,337.8H43.91a5.71,5.71,0,0,1-5.7-5.71V60.66A5.71,5.71,0,0,1,43.91,55H237a5.71,5.71,0,0,1,5.71,5.71V332.09A5.71,5.71,0,0,1,237,337.8ZM43.91,55.2a5.46,5.46,0,0,0-5.45,5.46V332.09a5.46,5.46,0,0,0,5.45,5.46H237a5.47,5.47,0,0,0,5.46-5.46V60.66A5.47,5.47,0,0,0,237,55.2Z" style="fill:#ebebeb"></path><path d="M453.31,337.8H260.21a5.72,5.72,0,0,1-5.71-5.71V60.66A5.72,5.72,0,0,1,260.21,55h193.1A5.71,5.71,0,0,1,459,60.66V332.09A5.71,5.71,0,0,1,453.31,337.8ZM260.21,55.2a5.47,5.47,0,0,0-5.46,5.46V332.09a5.47,5.47,0,0,0,5.46,5.46h193.1a5.47,5.47,0,0,0,5.46-5.46V60.66a5.47,5.47,0,0,0-5.46-5.46Z" style="fill:#ebebeb"></path><path d="M219.64,104.82a4.43,4.43,0,0,1,5.71-4.25,10.12,10.12,0,0,1-.1-1.36,9.39,9.39,0,0,1,9.39-9.39,9.85,9.85,0,0,1,1.73.16,8.2,8.2,0,0,1,15.21,4.15h.14a7.56,7.56,0,0,1,0,15.12H224A4.43,4.43,0,0,1,219.64,104.82Z" style="fill:#f5f5f5"></path><path d="M321.71,190.27a4.44,4.44,0,0,1,4.43-4.44,4.5,4.5,0,0,1,1.28.19,8.71,8.71,0,0,1-.1-1.36,9.39,9.39,0,0,1,9.38-9.39,8.9,8.9,0,0,1,1.73.17,8.21,8.21,0,0,1,15.22,4.14h.13a7.56,7.56,0,1,1,0,15.12H326A4.43,4.43,0,0,1,321.71,190.27Z" style="fill:#f5f5f5"></path><path d="M251.28,145a2.22,2.22,0,0,1,2.22-2.22,2.3,2.3,0,0,1,.64.09,3.82,3.82,0,0,1,0-.68,4.69,4.69,0,0,1,4.69-4.69,4.82,4.82,0,0,1,.86.08,4.1,4.1,0,0,1,7.61,2.07h.07a3.78,3.78,0,1,1,0,7.56H253.44A2.21,2.21,0,0,1,251.28,145Z" style="fill:#f5f5f5"></path><path d="M93.83,115a2.22,2.22,0,0,1,2.22-2.22,2.31,2.31,0,0,1,.64.1,3.89,3.89,0,0,1,0-.68,4.69,4.69,0,0,1,4.69-4.7,4.91,4.91,0,0,1,.86.08,4.1,4.1,0,0,1,7.61,2.08h.07a3.79,3.79,0,0,1,0,7.57H96A2.21,2.21,0,0,1,93.83,115Z" style="fill:#f5f5f5"></path><path d="M390.68,213.24a2.22,2.22,0,0,1,2.85-2.12,5.06,5.06,0,0,1,0-.68,4.69,4.69,0,0,1,4.69-4.69,4.94,4.94,0,0,1,.87.08,4.1,4.1,0,0,1,7.61,2.07h.07a3.78,3.78,0,0,1,0,7.56H392.83A2.22,2.22,0,0,1,390.68,213.24Z" style="fill:#f5f5f5"></path><path d="M91.32,214.14A2.19,2.19,0,0,1,94.17,212a5.06,5.06,0,0,1,0-.68,4.69,4.69,0,0,1,4.7-4.7,4.91,4.91,0,0,1,.86.08,4.1,4.1,0,0,1,7.61,2.08h.07a3.79,3.79,0,0,1,0,7.57H93.47A2.21,2.21,0,0,1,91.32,214.14Z" style="fill:#f5f5f5"></path><path d="M369,118.48a2.9,2.9,0,0,1,2.9-2.91,2.94,2.94,0,0,1,.84.12,6.54,6.54,0,0,1-.07-.89,6.16,6.16,0,0,1,6.16-6.16,5.93,5.93,0,0,1,1.13.11,5.38,5.38,0,0,1,10,2.72H390a5,5,0,1,1,0,9.91H371.81A2.91,2.91,0,0,1,369,118.48Z" style="fill:#f5f5f5"></path><path d="M107.46,185.82a8.42,8.42,0,0,1-.26-1.72c-.21-3.57-3.62-3-6.53-3.49-2.26-.38,3.74-6.11-.83-8a4.05,4.05,0,0,1-2.21-1.53,2.6,2.6,0,0,1,1-3.17,6.2,6.2,0,0,1,3.47-.88c.75-.9.14-2.27-.58-3.19s-1.61-2-1.33-3.12c.41-1.73,2.82-1.79,4.56-1.45.64-1.05.63-2.35.94-3.53s1.25-2.43,2.47-2.28,1.84,1.43,3,1.7c1.3.3,2.43-.85,3.45-1.71s2.81-1.41,3.52-.27c.42.68.17,1.63.61,2.3.76,1.17,2.56.45,3.68-.38s2.9-1.57,3.68-.43a4.92,4.92,0,0,1,.44,1.2c.52,1.53,2.17,2.29,3.46,3.27s2.3,2.92,1.22,4.12c-.54.59-1.48.82-1.75,1.58-.33.93.63,1.78,1.38,2.42,1.27,1.08,1.5,4.29-.17,5.17-.7.37-1.73.48-1.91,1.26s.55,1.23,1,1.76a3.31,3.31,0,0,1-1,4.94c-.4.2-.89.35-1,.77a1.54,1.54,0,0,0,.1.94,5.14,5.14,0,0,1,.16,1.79.82.82,0,0,1-.22.56.87.87,0,0,1-.53.15c-2.41.1-3.58-.75-5,1.35a1.69,1.69,0,0,1-.5.53,1.55,1.55,0,0,1-.67.17c-1.65.14-2.74-.9-4.25-1.09-2.11-.27-2.55.81-4.4,1.68C109.42,188.65,108,187.81,107.46,185.82Z" style="fill:#f5f5f5"></path><path d="M135.24,182.82a8.42,8.42,0,0,1-.26-1.72c-.21-3.57-3.62-3-6.52-3.49-2.27-.38,3.73-6.11-.84-8a4,4,0,0,1-2.21-1.54,2.61,2.61,0,0,1,1-3.17,6.2,6.2,0,0,1,3.47-.87c.75-.9.14-2.27-.58-3.19s-1.61-2-1.33-3.13c.41-1.72,2.82-1.78,4.56-1.45.64-1,.63-2.34.94-3.52s1.26-2.43,2.47-2.28,1.85,1.43,3,1.69c1.3.31,2.43-.84,3.45-1.71s2.81-1.4,3.52-.26c.42.68.17,1.63.61,2.3.76,1.17,2.56.44,3.68-.38s2.9-1.57,3.68-.43a4.77,4.77,0,0,1,.44,1.2c.53,1.52,2.18,2.28,3.46,3.26s2.31,2.93,1.22,4.12c-.54.59-1.48.83-1.75,1.58-.33.94.63,1.78,1.39,2.43,1.26,1.07,1.49,4.29-.18,5.17-.7.37-1.73.48-1.9,1.26s.54,1.23,1,1.76a3.32,3.32,0,0,1-1,4.94c-.4.19-.89.35-1,.77a1.58,1.58,0,0,0,.1.93,5.14,5.14,0,0,1,.16,1.79.83.83,0,0,1-.22.57.8.8,0,0,1-.53.14c-2.41.11-3.58-.74-5.05,1.36a1.69,1.69,0,0,1-.5.53,1.55,1.55,0,0,1-.67.17c-1.65.13-2.74-.9-4.25-1.09-2.11-.27-2.55.81-4.4,1.68C137.2,185.65,135.79,184.81,135.24,182.82Z" style="fill:#f5f5f5"></path><path d="M137.92,165.13a8.42,8.42,0,0,1-.26-1.72c-.21-3.58-3.62-3-6.53-3.49-2.26-.38,3.74-6.11-.83-8a4,4,0,0,1-2.21-1.54,2.6,2.6,0,0,1,1-3.17,6.12,6.12,0,0,1,3.47-.87c.74-.91.14-2.27-.58-3.2s-1.61-2-1.34-3.12c.42-1.72,2.83-1.78,4.57-1.45.64-1,.63-2.34.94-3.53s1.25-2.42,2.47-2.27,1.84,1.43,3,1.69c1.3.31,2.43-.84,3.45-1.71s2.81-1.4,3.52-.26c.42.68.17,1.63.6,2.3.76,1.16,2.56.44,3.68-.38s2.9-1.58,3.69-.43a4.83,4.83,0,0,1,.43,1.19c.53,1.53,2.18,2.29,3.47,3.27s2.3,2.93,1.21,4.12c-.53.59-1.48.83-1.74,1.58-.34.94.62,1.78,1.38,2.43,1.27,1.07,1.49,4.29-.18,5.17-.7.37-1.73.48-1.9,1.25s.55,1.23,1,1.77a3.32,3.32,0,0,1-1,4.94c-.4.19-.89.35-1,.77a1.57,1.57,0,0,0,.09.93,4.92,4.92,0,0,1,.17,1.79.65.65,0,0,1-.75.71c-2.41.11-3.58-.74-5,1.36a1.81,1.81,0,0,1-.5.53,1.54,1.54,0,0,1-.67.16c-1.66.14-2.74-.89-4.26-1.09-2.1-.26-2.54.82-4.4,1.69C139.88,168,138.47,167.12,137.92,165.13Z" style="fill:#f5f5f5"></path><path d="M156.22,173.94a8.42,8.42,0,0,1-.26-1.72c-.21-3.57-3.62-3-6.53-3.49-2.26-.38,3.74-6.11-.83-8a4,4,0,0,1-2.21-1.54,2.61,2.61,0,0,1,1-3.17,6.2,6.2,0,0,1,3.47-.87c.74-.9.14-2.27-.58-3.19s-1.61-2-1.34-3.13c.42-1.72,2.83-1.78,4.57-1.45.64-1,.63-2.34.94-3.52s1.25-2.43,2.47-2.28,1.84,1.43,3,1.69c1.3.31,2.43-.84,3.45-1.71s2.81-1.4,3.52-.26c.42.68.17,1.63.6,2.3.76,1.17,2.57.44,3.68-.38s2.9-1.57,3.69-.43a4.76,4.76,0,0,1,.43,1.2c.53,1.52,2.18,2.28,3.47,3.26s2.3,2.93,1.21,4.12c-.53.59-1.48.83-1.74,1.58-.34.94.62,1.78,1.38,2.43,1.27,1.07,1.5,4.29-.18,5.17-.7.37-1.72.48-1.9,1.26s.55,1.23,1,1.76a3.32,3.32,0,0,1-1,4.94c-.4.19-.89.35-1,.77a1.57,1.57,0,0,0,.09.93,4.92,4.92,0,0,1,.17,1.79.88.88,0,0,1-.22.57.82.82,0,0,1-.53.14c-2.41.11-3.58-.74-5.05,1.36a1.69,1.69,0,0,1-.5.53,1.55,1.55,0,0,1-.67.17c-1.66.13-2.74-.9-4.26-1.09-2.1-.27-2.54.81-4.4,1.68C158.18,176.77,156.77,175.93,156.22,173.94Z" style="fill:#f5f5f5"></path><path d="M174.72,169.87a7.78,7.78,0,0,1-.26-1.72c-.22-3.57-3.63-3-6.53-3.49-2.27-.38,3.74-6.11-.84-8a4,4,0,0,1-2.2-1.54,2.59,2.59,0,0,1,1-3.17,6.2,6.2,0,0,1,3.47-.87c.75-.9.14-2.27-.58-3.19s-1.6-2-1.33-3.13c.41-1.72,2.82-1.78,4.56-1.45.65-1,.63-2.34.95-3.52s1.25-2.43,2.46-2.28,1.85,1.43,3,1.69c1.3.31,2.43-.84,3.46-1.71s2.81-1.4,3.51-.26c.42.68.17,1.63.61,2.3.76,1.17,2.56.44,3.68-.38s2.9-1.57,3.69-.43a4.76,4.76,0,0,1,.43,1.2c.53,1.52,2.18,2.28,3.46,3.26s2.31,2.93,1.22,4.12c-.54.59-1.48.83-1.75,1.58-.33.94.63,1.78,1.39,2.43,1.26,1.07,1.49,4.29-.18,5.17-.7.37-1.73.48-1.9,1.26s.55,1.23,1,1.76a3.32,3.32,0,0,1-1,4.94c-.4.19-.9.35-1.05.77a1.58,1.58,0,0,0,.1.93,4.91,4.91,0,0,1,.16,1.79.83.83,0,0,1-.22.57.8.8,0,0,1-.53.14c-2.41.11-3.57-.74-5,1.36a1.72,1.72,0,0,1-.51.53,1.5,1.5,0,0,1-.66.17c-1.66.13-2.74-.9-4.26-1.09-2.1-.27-2.55.81-4.4,1.68C176.68,172.7,175.26,171.86,174.72,169.87Z" style="fill:#f5f5f5"></path><path d="M175,189.66a6.7,6.7,0,0,1-.21-1.36c-.16-2.81-2.85-2.37-5.14-2.75-1.78-.3,2.95-4.81-.65-6.26a3.18,3.18,0,0,1-1.74-1.21,2,2,0,0,1,.78-2.5,4.87,4.87,0,0,1,2.74-.69c.58-.71.11-1.78-.46-2.51s-1.27-1.56-1.05-2.46c.32-1.36,2.22-1.41,3.59-1.14a9.59,9.59,0,0,0,.74-2.78c.25-.93,1-1.91,1.95-1.8s1.45,1.13,2.33,1.34c1,.24,1.92-.67,2.72-1.35s2.22-1.1,2.77-.21c.33.54.14,1.29.48,1.82.6.92,2,.35,2.9-.3s2.28-1.24,2.9-.34a3.77,3.77,0,0,1,.34.94c.42,1.2,1.72,1.8,2.73,2.57s1.81,2.31,1,3.25c-.42.46-1.17.65-1.38,1.24-.26.74.5,1.4,1.09,1.91,1,.85,1.18,3.38-.14,4.07-.55.29-1.36.38-1.49,1s.43,1,.79,1.39a2.61,2.61,0,0,1-.8,3.89c-.31.15-.7.28-.82.61a1.24,1.24,0,0,0,.08.73,4,4,0,0,1,.13,1.41.63.63,0,0,1-.18.44.6.6,0,0,1-.41.12c-1.9.09-2.82-.59-4,1.07a1.43,1.43,0,0,1-.39.42,1.38,1.38,0,0,1-.53.13c-1.3.11-2.16-.71-3.35-.86-1.66-.21-2,.64-3.46,1.33C176.5,191.89,175.39,191.22,175,189.66Z" style="fill:#f5f5f5"></path><path d="M185.32,182.82a8.42,8.42,0,0,1-.26-1.72c-.21-3.57-3.62-3-6.53-3.49-2.26-.38,3.74-6.11-.83-8a4,4,0,0,1-2.21-1.54,2.61,2.61,0,0,1,1-3.17,6.2,6.2,0,0,1,3.47-.87c.74-.9.14-2.27-.58-3.19s-1.61-2-1.34-3.13c.42-1.72,2.83-1.78,4.57-1.45.64-1,.63-2.34.94-3.52s1.25-2.43,2.47-2.28,1.84,1.43,3,1.69c1.3.31,2.43-.84,3.45-1.71s2.81-1.4,3.52-.26c.42.68.17,1.63.6,2.3.76,1.17,2.57.44,3.68-.38s2.9-1.57,3.69-.43a4.76,4.76,0,0,1,.43,1.2c.53,1.52,2.18,2.28,3.47,3.26s2.3,2.93,1.22,4.12c-.54.59-1.49.83-1.75,1.58-.34.94.62,1.78,1.38,2.43,1.27,1.07,1.5,4.29-.17,5.17-.71.37-1.73.48-1.91,1.26s.55,1.23,1,1.76a3.32,3.32,0,0,1-1,4.94c-.4.19-.89.35-1,.77a1.57,1.57,0,0,0,.09.93,4.92,4.92,0,0,1,.17,1.79.88.88,0,0,1-.22.57.8.8,0,0,1-.53.14c-2.41.11-3.58-.74-5,1.36a1.69,1.69,0,0,1-.5.53,1.55,1.55,0,0,1-.67.17c-1.66.13-2.74-.9-4.26-1.09-2.1-.27-2.54.81-4.4,1.68C187.28,185.65,185.87,184.81,185.32,182.82Z" style="fill:#f5f5f5"></path><path d="M156.22,152.18a8.42,8.42,0,0,1-.26-1.72c-.21-3.58-3.62-3-6.53-3.49-2.26-.38,3.74-6.11-.83-8a4,4,0,0,1-2.21-1.54,2.6,2.6,0,0,1,1-3.17,6.12,6.12,0,0,1,3.47-.87c.74-.91.14-2.27-.58-3.2s-1.61-2-1.34-3.12c.42-1.72,2.83-1.78,4.57-1.45.64-1,.63-2.34.94-3.53s1.25-2.42,2.47-2.27,1.84,1.43,3,1.69c1.3.31,2.43-.84,3.45-1.71s2.81-1.4,3.52-.26c.42.68.17,1.63.6,2.3.76,1.16,2.57.44,3.68-.38s2.9-1.58,3.69-.43a4.83,4.83,0,0,1,.43,1.19c.53,1.53,2.18,2.29,3.47,3.27s2.3,2.93,1.21,4.12c-.53.59-1.48.83-1.74,1.58-.34.94.62,1.78,1.38,2.43,1.27,1.07,1.5,4.29-.18,5.17-.7.37-1.72.48-1.9,1.25s.55,1.23,1,1.77a3.32,3.32,0,0,1-1,4.94c-.4.19-.89.35-1,.77a1.57,1.57,0,0,0,.09.93,4.92,4.92,0,0,1,.17,1.79.65.65,0,0,1-.75.71c-2.41.11-3.58-.74-5.05,1.36a1.81,1.81,0,0,1-.5.53,1.54,1.54,0,0,1-.67.16c-1.66.14-2.74-.89-4.26-1.09-2.1-.26-2.54.82-4.4,1.69C158.18,155,156.77,154.17,156.22,152.18Z" style="fill:#f5f5f5"></path><path d="M132.46,153.4a8.63,8.63,0,0,1-.26-1.73c-.21-3.57-3.62-3-6.53-3.49-2.26-.38,3.74-6.11-.83-8a4.05,4.05,0,0,1-2.21-1.53,2.6,2.6,0,0,1,1-3.17,6.12,6.12,0,0,1,3.47-.87c.74-.91.14-2.28-.58-3.2s-1.61-2-1.34-3.12c.42-1.73,2.83-1.79,4.57-1.45.64-1,.63-2.35.94-3.53s1.25-2.43,2.47-2.28,1.84,1.43,3,1.7c1.3.3,2.43-.85,3.45-1.71s2.81-1.41,3.52-.27c.42.68.17,1.63.6,2.31.76,1.16,2.56.44,3.68-.39s2.9-1.57,3.69-.43a5.05,5.05,0,0,1,.43,1.2c.53,1.53,2.18,2.29,3.47,3.27s2.3,2.92,1.21,4.12c-.53.59-1.48.83-1.74,1.58-.34.94.62,1.78,1.38,2.42,1.27,1.08,1.49,4.29-.18,5.17-.7.37-1.73.49-1.9,1.26s.55,1.23,1,1.76a3.31,3.31,0,0,1-1,4.94c-.4.2-.89.35-1,.77a1.61,1.61,0,0,0,.09.94,4.92,4.92,0,0,1,.17,1.79.87.87,0,0,1-.22.56.89.89,0,0,1-.53.15c-2.41.11-3.58-.75-5.05,1.35a1.69,1.69,0,0,1-.5.53,1.55,1.55,0,0,1-.67.17c-1.66.14-2.74-.9-4.26-1.09-2.1-.27-2.54.81-4.4,1.69C134.42,156.23,133,155.38,132.46,153.4Z" style="fill:#f5f5f5"></path><path d="M118,163.12a8.64,8.64,0,0,1-.26-1.72c-.21-3.58-3.63-3-6.53-3.5-2.27-.37,3.74-6.1-.83-8a4,4,0,0,1-2.21-1.54,2.6,2.6,0,0,1,1-3.17,6.13,6.13,0,0,1,3.48-.87c.74-.91.14-2.27-.59-3.2s-1.6-2-1.33-3.12c.41-1.72,2.82-1.78,4.56-1.45.65-1,.64-2.34,1-3.53s1.25-2.42,2.47-2.28,1.84,1.44,3,1.7c1.31.31,2.44-.85,3.46-1.71s2.81-1.4,3.51-.27c.43.69.17,1.64.61,2.31.76,1.16,2.56.44,3.68-.38s2.9-1.58,3.69-.43a4.83,4.83,0,0,1,.43,1.19c.53,1.53,2.18,2.29,3.47,3.27s2.3,2.93,1.21,4.12c-.53.59-1.48.83-1.74,1.58-.34.94.62,1.78,1.38,2.43,1.26,1.07,1.49,4.29-.18,5.17-.7.37-1.73.48-1.9,1.25s.55,1.23,1,1.77a3.31,3.31,0,0,1-1,4.94c-.4.19-.9.35-1,.77a1.58,1.58,0,0,0,.09.93,4.71,4.71,0,0,1,.16,1.79.82.82,0,0,1-.21.56.91.91,0,0,1-.53.15c-2.42.11-3.58-.75-5.05,1.35a1.73,1.73,0,0,1-.5.54,1.69,1.69,0,0,1-.67.16c-1.66.14-2.74-.89-4.26-1.09-2.1-.27-2.55.82-4.4,1.69C120,166,118.58,165.1,118,163.12Z" style="fill:#f5f5f5"></path><path d="M122.4,175.41s6,8.53,8.12,11.24,12.49,19.56,13.9,30.71c.16,1.19.3,2.22.45,3.11-4.48,29.55-3.77,142.34-3.62,151.59h18.37c-3.5-69.32-2.85-164.56-2.41-167.47.47-3.08,6.4-14.82,15.56-19.64s17.07-20.78,17.07-20.78h-2.92s-5.41,9.78-13.11,15.19a30.61,30.61,0,0,1-3.46,2.06,49.22,49.22,0,0,0-3.07-17.25l-1.57,1.46c2.13,8.71,1.85,14.29,1.2,17.5a31.75,31.75,0,0,0-8,5.32c-8-10.38-12.48-34.14-12.48-34.14l-2.05,1.12A121.45,121.45,0,0,0,147.07,170c1.49,6.15,5.9,17.72,8,23a54.54,54.54,0,0,0-6,11.32,4.53,4.53,0,0,0-.77-.92c-5.2-4.7-15-26.93-15-26.93-2.37-5.17,1.25-18.73,1.25-18.73h-2.74l-1.22,11.86-6.87-7.49-1.25,1,7.29,9.37,3.74,11.86-9.78-10.82Z" style="fill:#f5f5f5"></path><path d="M270.08,227a6.32,6.32,0,0,0,.2-1.32c.16-2.72,2.76-2.29,5-2.66,1.72-.29-2.85-4.66.63-6.06a3.07,3.07,0,0,0,1.68-1.18,2,2,0,0,0-.75-2.41,4.69,4.69,0,0,0-2.65-.67c-.57-.69-.11-1.73.44-2.43s1.23-1.51,1-2.38c-.32-1.32-2.15-1.36-3.48-1.11a9.53,9.53,0,0,1-.72-2.69c-.24-.9-.95-1.85-1.88-1.73s-1.41,1.09-2.26,1.29c-1,.23-1.86-.65-2.64-1.3s-2.14-1.07-2.67-.21c-.33.52-.13,1.25-.47,1.76-.58.89-1.95.34-2.8-.29s-2.21-1.2-2.81-.33a3.31,3.31,0,0,0-.33.91c-.41,1.17-1.66,1.75-2.64,2.49s-1.76,2.23-.93,3.14c.41.45,1.13.64,1.33,1.21s-.48,1.35-1.06,1.85c-1,.82-1.13,3.27.14,3.94.54.28,1.32.36,1.45.95s-.42.94-.77,1.35a2.53,2.53,0,0,0,.77,3.77c.31.14.68.26.8.58a1.17,1.17,0,0,1-.08.71,4,4,0,0,0-.12,1.37.68.68,0,0,0,.17.43.67.67,0,0,0,.4.11c1.84.08,2.73-.57,3.85,1a1.49,1.49,0,0,0,.38.41,1.1,1.1,0,0,0,.51.12c1.26.11,2.09-.68,3.24-.83,1.61-.2,1.95.62,3.36,1.29C268.59,229.13,269.66,228.49,270.08,227Z" style="fill:#f5f5f5"></path><path d="M248.91,224.69a7.06,7.06,0,0,0,.2-1.32c.16-2.72,2.76-2.29,5-2.66,1.73-.29-2.85-4.65.64-6.06a3.09,3.09,0,0,0,1.68-1.17,2,2,0,0,0-.76-2.42,4.64,4.64,0,0,0-2.65-.66c-.56-.7-.1-1.74.45-2.44s1.22-1.51,1-2.38c-.31-1.31-2.15-1.36-3.47-1.11a8.91,8.91,0,0,1-.72-2.69c-.24-.9-1-1.84-1.89-1.73s-1.4,1.09-2.26,1.29-1.85-.64-2.63-1.3-2.14-1.07-2.68-.2c-.32.52-.13,1.24-.46,1.75-.58.89-2,.34-2.81-.29s-2.21-1.2-2.81-.33a4.12,4.12,0,0,0-.33.91c-.4,1.17-1.66,1.75-2.64,2.49s-1.76,2.24-.93,3.15c.41.45,1.13.63,1.34,1.2.25.72-.48,1.36-1.06,1.85-1,.82-1.14,3.27.14,3.94.53.28,1.31.37,1.45,1s-.42.93-.78,1.34a2.54,2.54,0,0,0,.78,3.77c.3.14.68.26.79.58a1.29,1.29,0,0,1-.07.72,3.47,3.47,0,0,0-.12,1.36.59.59,0,0,0,.16.43.62.62,0,0,0,.4.11c1.84.08,2.73-.57,3.85,1a1.27,1.27,0,0,0,.39.41,1.24,1.24,0,0,0,.5.13c1.27.1,2.09-.69,3.25-.84,1.6-.2,1.94.63,3.35,1.29C247.41,226.84,248.49,226.2,248.91,224.69Z" style="fill:#f5f5f5"></path><path d="M246.87,211.2a6.15,6.15,0,0,0,.19-1.31c.17-2.73,2.77-2.29,5-2.66,1.73-.29-2.85-4.66.64-6.07a3,3,0,0,0,1.68-1.17,2,2,0,0,0-.76-2.42,4.72,4.72,0,0,0-2.65-.66c-.57-.69-.1-1.73.45-2.44s1.22-1.51,1-2.38c-.31-1.31-2.15-1.36-3.48-1.1a9.37,9.37,0,0,1-.71-2.69c-.24-.9-1-1.85-1.89-1.74s-1.4,1.09-2.26,1.3-1.85-.65-2.63-1.31-2.14-1.07-2.68-.2c-.32.52-.13,1.24-.46,1.76-.58.88-2,.33-2.81-.3s-2.21-1.19-2.81-.32a4,4,0,0,0-.33.91c-.4,1.16-1.66,1.74-2.64,2.49s-1.76,2.23-.93,3.14c.41.45,1.13.63,1.33,1.2.26.72-.47,1.36-1.05,1.85-1,.82-1.14,3.27.13,3.94.54.29,1.32.37,1.45,1s-.41.94-.77,1.35a2.53,2.53,0,0,0,.78,3.76c.3.15.68.27.79.59a1.24,1.24,0,0,1-.07.71,3.69,3.69,0,0,0-.13,1.36.64.64,0,0,0,.17.43.63.63,0,0,0,.4.12c1.84.08,2.73-.57,3.85,1a1.24,1.24,0,0,0,.39.4,1.09,1.09,0,0,0,.5.13c1.27.1,2.09-.68,3.25-.83,1.6-.21,1.94.62,3.35,1.28C245.37,213.36,246.45,212.72,246.87,211.2Z" style="fill:#f5f5f5"></path><path d="M232.92,217.92a7.07,7.07,0,0,0,.2-1.31c.16-2.73,2.76-2.3,5-2.67,1.73-.29-2.85-4.65.64-6.06a3.06,3.06,0,0,0,1.68-1.17,2,2,0,0,0-.76-2.42,4.64,4.64,0,0,0-2.65-.66c-.56-.69-.1-1.73.45-2.44s1.22-1.51,1-2.38c-.31-1.31-2.15-1.36-3.47-1.1a9.72,9.72,0,0,1-.72-2.69c-.24-.91-1-1.85-1.88-1.74s-1.41,1.09-2.27,1.29-1.85-.64-2.63-1.3-2.14-1.07-2.68-.2c-.32.52-.13,1.24-.46,1.75-.58.89-1.95.34-2.81-.29s-2.21-1.2-2.81-.32a3.78,3.78,0,0,0-.33.91c-.4,1.16-1.66,1.74-2.64,2.49s-1.75,2.23-.93,3.14c.41.45,1.13.63,1.34,1.2.25.72-.48,1.36-1.06,1.85-1,.82-1.14,3.27.14,3.94.53.28,1.31.37,1.45,1s-.42.94-.78,1.34a2.54,2.54,0,0,0,.78,3.77c.3.15.68.27.79.59a1.26,1.26,0,0,1-.07.71,3.47,3.47,0,0,0-.12,1.36.59.59,0,0,0,.16.43.64.64,0,0,0,.41.11c1.83.09,2.72-.57,3.84,1a1.18,1.18,0,0,0,.39.41,1.24,1.24,0,0,0,.5.13c1.27.1,2.09-.69,3.25-.83,1.6-.21,1.94.62,3.35,1.28C231.42,220.08,232.5,219.43,232.92,217.92Z" style="fill:#f5f5f5"></path><path d="M218.82,214.82a6.32,6.32,0,0,0,.2-1.32c.16-2.72,2.76-2.29,5-2.66,1.73-.29-2.85-4.65.64-6.06a3,3,0,0,0,1.68-1.18,2,2,0,0,0-.76-2.41,4.71,4.71,0,0,0-2.64-.67c-.57-.69-.11-1.73.44-2.43s1.22-1.51,1-2.38c-.32-1.32-2.15-1.36-3.48-1.11a9.53,9.53,0,0,1-.72-2.69c-.24-.9-1-1.85-1.88-1.73s-1.41,1.09-2.26,1.29c-1,.23-1.86-.64-2.64-1.3s-2.14-1.07-2.68-.21c-.32.52-.13,1.25-.46,1.76-.58.89-1.95.34-2.8-.29s-2.22-1.2-2.81-.33a3.7,3.7,0,0,0-.34.91c-.4,1.17-1.66,1.75-2.64,2.49s-1.75,2.23-.92,3.15c.41.44,1.13.63,1.33,1.2s-.48,1.36-1.06,1.85c-1,.82-1.13,3.27.14,3.94.53.28,1.32.37,1.45,1s-.42.93-.78,1.34a2.54,2.54,0,0,0,.78,3.77c.31.14.68.26.79.58a1.16,1.16,0,0,1-.07.71,3.74,3.74,0,0,0-.12,1.37.65.65,0,0,0,.16.43.72.72,0,0,0,.41.11c1.84.08,2.72-.57,3.85,1a1,1,0,0,0,.89.54c1.26.1,2.09-.69,3.24-.84,1.6-.2,1.94.63,3.36,1.29C217.33,217,218.4,216.33,218.82,214.82Z" style="fill:#f5f5f5"></path><path d="M218.64,229.9a5.2,5.2,0,0,0,.15-1c.13-2.14,2.18-1.8,3.92-2.09,1.36-.23-2.24-3.67.5-4.78a2.44,2.44,0,0,0,1.33-.92,1.57,1.57,0,0,0-.6-1.9,3.77,3.77,0,0,0-2.09-.53c-.44-.54-.08-1.36.35-1.92s1-1.18.8-1.87c-.24-1-1.69-1.07-2.74-.87a7.79,7.79,0,0,1-.56-2.12c-.19-.71-.75-1.45-1.48-1.36s-1.11.86-1.78,1-1.46-.5-2.08-1-1.68-.85-2.11-.16c-.25.41-.1,1-.36,1.38-.46.7-1.54.27-2.21-.23s-1.74-.94-2.21-.26a2.7,2.7,0,0,0-.26.72c-.32.92-1.31,1.37-2.08,2s-1.39,1.76-.73,2.48c.32.35.89.49,1,.94s-.38,1.07-.84,1.46c-.75.64-.89,2.57.11,3.1.42.22,1,.29,1.14.76s-.33.73-.61,1.05a2,2,0,0,0,.61,3c.24.12.54.21.63.46a1,1,0,0,1-.06.56,2.82,2.82,0,0,0-.09,1.08.44.44,0,0,0,.13.33.42.42,0,0,0,.31.09c1.45.07,2.15-.44,3,.82a1.18,1.18,0,0,0,.31.32,1.07,1.07,0,0,0,.39.1c1,.08,1.65-.54,2.56-.66,1.26-.16,1.53.49,2.64,1C217.46,231.59,218.31,231.09,218.64,229.9Z" style="fill:#f5f5f5"></path><path d="M210.74,224.69a7.06,7.06,0,0,0,.2-1.32c.16-2.72,2.76-2.29,5-2.66,1.73-.29-2.85-4.65.64-6.06a3.09,3.09,0,0,0,1.68-1.17,2,2,0,0,0-.76-2.42,4.64,4.64,0,0,0-2.65-.66c-.56-.7-.1-1.74.45-2.44s1.22-1.51,1-2.38c-.31-1.31-2.15-1.36-3.47-1.11a8.91,8.91,0,0,1-.72-2.69c-.24-.9-1-1.84-1.89-1.73s-1.4,1.09-2.26,1.29-1.85-.64-2.63-1.3-2.14-1.07-2.68-.2c-.32.52-.13,1.24-.46,1.75-.58.89-2,.34-2.81-.29s-2.21-1.2-2.81-.33a4.12,4.12,0,0,0-.33.91c-.4,1.17-1.66,1.75-2.64,2.49s-1.76,2.24-.93,3.15c.41.45,1.13.63,1.34,1.2.25.72-.48,1.36-1.06,1.85-1,.82-1.14,3.27.14,3.94.53.28,1.31.37,1.44,1s-.41.93-.77,1.34a2.54,2.54,0,0,0,.78,3.77c.3.14.68.26.79.58a1.29,1.29,0,0,1-.07.72,3.47,3.47,0,0,0-.12,1.36.59.59,0,0,0,.16.43.62.62,0,0,0,.4.11c1.84.08,2.73-.57,3.85,1a1.27,1.27,0,0,0,.39.41,1.24,1.24,0,0,0,.5.13c1.27.1,2.09-.69,3.25-.84,1.6-.2,1.94.63,3.35,1.29C209.24,226.84,210.32,226.2,210.74,224.69Z" style="fill:#f5f5f5"></path><path d="M232.92,201.33a6.94,6.94,0,0,0,.2-1.31c.16-2.73,2.76-2.29,5-2.66,1.73-.29-2.85-4.66.64-6.07a3.06,3.06,0,0,0,1.68-1.17,2,2,0,0,0-.76-2.42A4.72,4.72,0,0,0,237,187c-.56-.69-.1-1.73.45-2.44s1.22-1.51,1-2.38c-.31-1.31-2.15-1.36-3.47-1.1a9.72,9.72,0,0,1-.72-2.69c-.24-.9-1-1.85-1.88-1.74s-1.41,1.09-2.27,1.3-1.85-.65-2.63-1.31-2.14-1.07-2.68-.2c-.32.52-.13,1.24-.46,1.76-.58.88-1.95.33-2.81-.3s-2.21-1.2-2.81-.32a4,4,0,0,0-.33.91c-.4,1.16-1.66,1.74-2.64,2.49s-1.75,2.23-.93,3.14c.41.45,1.13.63,1.34,1.2s-.48,1.36-1.06,1.85c-1,.82-1.14,3.27.14,3.94.53.28,1.31.37,1.45,1s-.42.94-.78,1.34a2.54,2.54,0,0,0,.78,3.77c.3.15.68.27.79.59a1.24,1.24,0,0,1-.07.71,3.48,3.48,0,0,0-.12,1.36.59.59,0,0,0,.16.43.71.71,0,0,0,.41.12c1.83.08,2.72-.57,3.84,1a1.24,1.24,0,0,0,.39.4,1.09,1.09,0,0,0,.5.13c1.27.1,2.09-.68,3.25-.83,1.6-.21,1.94.62,3.35,1.28C231.42,203.49,232.5,202.84,232.92,201.33Z" style="fill:#f5f5f5"></path><path d="M251,202.26a7.06,7.06,0,0,0,.2-1.32c.16-2.72,2.76-2.29,5-2.66,1.73-.29-2.85-4.65.64-6.06a3.06,3.06,0,0,0,1.68-1.17,2,2,0,0,0-.76-2.42,4.64,4.64,0,0,0-2.65-.66c-.56-.7-.1-1.74.45-2.44s1.22-1.51,1-2.38c-.31-1.31-2.15-1.36-3.47-1.11a9.53,9.53,0,0,1-.72-2.69c-.24-.9-1-1.84-1.88-1.73s-1.41,1.09-2.27,1.29-1.85-.64-2.63-1.3-2.14-1.07-2.68-.2c-.32.52-.13,1.24-.46,1.75-.58.89-2,.34-2.81-.29s-2.21-1.2-2.81-.33a4.12,4.12,0,0,0-.33.91c-.4,1.17-1.66,1.75-2.64,2.49s-1.75,2.24-.93,3.15c.41.45,1.13.63,1.34,1.2.25.72-.48,1.36-1.06,1.85-1,.82-1.14,3.27.14,3.94.53.28,1.31.37,1.45,1s-.42.93-.78,1.34a2.54,2.54,0,0,0,.78,3.77c.3.14.68.26.79.58a1.29,1.29,0,0,1-.07.72,3.47,3.47,0,0,0-.12,1.36.59.59,0,0,0,.16.43.64.64,0,0,0,.41.11c1.83.08,2.72-.57,3.84,1a1.18,1.18,0,0,0,.39.41,1.24,1.24,0,0,0,.5.13c1.27.1,2.09-.69,3.25-.84,1.6-.2,1.94.63,3.35,1.29C249.53,204.41,250.61,203.77,251,202.26Z" style="fill:#f5f5f5"></path><path d="M262,209.67a7.07,7.07,0,0,0,.2-1.31c.16-2.73,2.76-2.3,5-2.67,1.73-.29-2.85-4.65.64-6.06a3.06,3.06,0,0,0,1.68-1.17,2,2,0,0,0-.76-2.42,4.63,4.63,0,0,0-2.64-.66c-.57-.69-.11-1.73.44-2.44s1.22-1.51,1-2.38c-.31-1.31-2.15-1.36-3.47-1.1a9.72,9.72,0,0,1-.72-2.69c-.24-.91-1-1.85-1.88-1.74s-1.41,1.09-2.27,1.29-1.85-.64-2.63-1.3-2.14-1.07-2.68-.2c-.32.52-.13,1.24-.46,1.75-.58.89-2,.34-2.81-.29s-2.21-1.2-2.81-.32a3.78,3.78,0,0,0-.33.91c-.4,1.16-1.66,1.74-2.64,2.49s-1.75,2.23-.92,3.14c.4.45,1.12.63,1.33,1.2.25.72-.48,1.36-1.06,1.85-1,.82-1.14,3.27.14,3.94.53.28,1.32.37,1.45,1s-.42.94-.78,1.34a2.54,2.54,0,0,0,.78,3.77c.3.15.68.27.79.59a1.26,1.26,0,0,1-.07.71,3.66,3.66,0,0,0-.12,1.36.59.59,0,0,0,.16.43.64.64,0,0,0,.41.11c1.84.09,2.72-.57,3.84,1a1.28,1.28,0,0,0,.39.41,1.24,1.24,0,0,0,.5.13c1.27.1,2.09-.69,3.25-.83,1.6-.21,1.94.62,3.35,1.28C260.53,211.83,261.61,211.18,262,209.67Z" style="fill:#f5f5f5"></path><path d="M258.69,219s-4.6,6.5-6.18,8.56S243,242.51,241.91,251c-.12.91-.23,1.69-.34,2.37,3.41,22.52,2.88,113.48,2.76,120.54H229.06c1.67-69.68,3.44-130.42,3.1-132.64s-4.88-11.3-11.86-15-13-15.84-13-15.84h2.23s4.12,7.46,10,11.58a22.11,22.11,0,0,0,2.64,1.57,37.56,37.56,0,0,1,2.33-13.15l1.21,1.11c-1.63,6.64-1.41,10.89-.92,13.34a24.08,24.08,0,0,1,6.07,4.06c6.09-7.92,9.51-26,9.51-26l1.56.85a93.1,93.1,0,0,1-2,11.1c-1.15,4.69-4.5,13.51-6.06,17.52a41.22,41.22,0,0,1,4.59,8.63,4,4,0,0,1,.59-.7c4-3.59,11.42-20.53,11.42-20.53,1.81-3.94-.95-14.28-.95-14.28h2.08l.94,9,5.23-5.71.95.8-5.55,7.14-2.85,9,7.45-8.25Z" style="fill:#f5f5f5"></path><rect x="91.32" y="297.8" width="328.93" height="11.15" style="fill:#e0e0e0"></rect><polygon points="99.06 367.04 83.57 367.04 83.57 269.25 91.32 263.74 99.06 269.25 99.06 367.04" style="fill:#e6e6e6"></polygon><polygon points="126.47 367.04 110.98 367.04 110.98 269.25 118.73 263.74 126.47 269.25 126.47 367.04" style="fill:#e6e6e6"></polygon><polygon points="153.89 367.04 138.4 367.04 138.4 269.25 146.14 263.74 153.89 269.25 153.89 367.04" style="fill:#e6e6e6"></polygon><polygon points="181.3 367.04 165.81 367.04 165.81 269.25 173.55 263.74 181.3 269.25 181.3 367.04" style="fill:#e6e6e6"></polygon><polygon points="208.71 367.04 193.22 367.04 193.22 269.25 200.96 263.74 208.71 269.25 208.71 367.04" style="fill:#e6e6e6"></polygon><polygon points="236.12 367.04 220.63 367.04 220.63 269.25 228.37 263.74 236.12 269.25 236.12 367.04" style="fill:#e6e6e6"></polygon><polygon points="263.53 367.04 248.04 367.04 248.04 269.25 255.78 263.74 263.53 269.25 263.53 367.04" style="fill:#e6e6e6"></polygon><polygon points="290.94 367.04 275.45 367.04 275.45 269.25 283.2 263.74 290.94 269.25 290.94 367.04" style="fill:#e6e6e6"></polygon><polygon points="318.35 367.04 302.86 367.04 302.86 269.25 310.61 263.74 318.35 269.25 318.35 367.04" style="fill:#e6e6e6"></polygon><polygon points="345.76 367.04 330.27 367.04 330.27 269.25 338.02 263.74 345.76 269.25 345.76 367.04" style="fill:#e6e6e6"></polygon><polygon points="373.18 367.04 357.69 367.04 357.69 269.25 365.43 263.74 373.18 269.25 373.18 367.04" style="fill:#e6e6e6"></polygon><polygon points="400.59 367.04 385.1 367.04 385.1 269.25 392.84 263.74 400.59 269.25 400.59 367.04" style="fill:#e6e6e6"></polygon><polygon points="428 367.04 412.51 367.04 412.51 269.25 420.25 263.74 428 269.25 428 367.04" style="fill:#e6e6e6"></polygon><path d="M416.22,368.11s2.56-8.59-2.63-10.3-8.26-5.73-8.09-10.27-5.28-9-9.38-4.71-3.55-3.27-9-5.1-10.08,2.61-8.59,6.66-3.89,6.6-10.34,3.15-13.55,2.82-12.19,7.74.25,5.46-3.83,3.82-11.39,3-8.83,9S416.22,368.11,416.22,368.11Z" style="fill:#e0e0e0"></path><path d="M140.59,366.88s2-6.67-2-8-6.42-4.45-6.28-8-4.11-7-7.29-3.66-2.75-2.54-7-4-7.83,2-6.67,5.18-3,5.12-8,2.44-10.52,2.19-9.46,6,.19,4.24-3,3-8.84,2.33-6.85,7S140.59,366.88,140.59,366.88Z" style="fill:#e0e0e0"></path><path d="M240.22,367.67c4.59-4.59.46-12.39-4.13-13.31s-9.2-9-9.42-14.13-8.48-21-21.33-11.19-8.94,1.44-18.23-1.3S172,332.89,176,338.8c0,0-9.34-2.34-13.19,6.38s0,14.14,0,14.14-17.56-.52-16,10.34S240.22,367.67,240.22,367.67Z" style="fill:#e0e0e0"></path><path d="M77,367.94v12.58H431.26V367.94a3.74,3.74,0,0,0-3.7-3.94H80.72A3.74,3.74,0,0,0,77,367.94Z" style="fill:#ebebeb"></path><rect x="389.05" y="364" width="22.03" height="16.52" style="fill:#f5f5f5"></rect><rect x="347.75" y="364" width="21.11" height="16.52" style="fill:#f5f5f5"></rect><rect x="305.53" y="364" width="22.03" height="16.52" style="fill:#f5f5f5"></rect><rect x="264.23" y="364" width="21.11" height="16.52" style="fill:#f5f5f5"></rect><rect x="222.94" y="364" width="21.11" height="16.52" style="fill:#f5f5f5"></rect><rect x="180.72" y="364" width="22.03" height="16.52" style="fill:#f5f5f5"></rect><rect x="139.42" y="364" width="21.11" height="16.52" style="fill:#f5f5f5"></rect><rect x="97.21" y="364" width="22.03" height="16.52" style="fill:#f5f5f5"></rect></g><g id="freepik--Shadow--inject-13"><ellipse id="freepik--path--inject-13" cx="250" cy="416.24" rx="193.89" ry="11.32" style="fill:#f5f5f5"></ellipse></g><g id="freepik--Plants--inject-13"><polygon points="268.28 358.25 172.09 358.25 154.26 358.25 154.26 417.5 158.85 417.5 158.85 367.78 172.09 367.78 172.09 417.5 176.68 417.5 176.68 367.78 263.7 367.78 263.7 417.5 268.28 417.5 268.28 367.78 281.53 367.78 281.53 417.5 286.11 417.5 286.11 358.25 268.28 358.25" style="fill:#263238"></polygon><polygon points="172.09 358.25 172.09 417.5 176.68 417.5 176.68 367.78 281.53 367.78 281.53 417.5 286.11 417.5 286.11 358.25 172.09 358.25" style="fill:#fff;opacity:0.2;isolation:isolate"></polygon><path d="M273,284.56c-.21,1.47,3.77,2.44,7,3-.27,2.67-2.05,5.37-4.5,7.89-3.08-1.74-7.49-4-8.3-3.48s3.63,3.53,6.45,5.25a59,59,0,0,1-6.39,4.84c-1.39-1.3-3-2.43-4-1.82s-.73,2.64-.24,4.42c-3.35,2-5.87,3.15-5.87,3.15a67.5,67.5,0,0,1-2.24-9.53c.17-.33.34-.67.49-1,.54-1.25,0-1.78-.88-2a33.52,33.52,0,0,1-.05-6.86c3.8-.8,8.42-2.28,6.69-4.55-1.05-1.38-3-1.53-4.94-1.19a7.9,7.9,0,0,1,.93-1.28c6.92-7.62,11.74,0,11.74,0,4-3.35,9.66-2.44,10.88,2.79C277.55,283.6,273.23,282.74,273,284.56Z" style="fill:#6FD08C"></path><path d="M273,284.56c-.21,1.47,3.77,2.44,7,3-.27,2.67-2.05,5.37-4.5,7.89-3.08-1.74-7.49-4-8.3-3.48s3.63,3.53,6.45,5.25a59,59,0,0,1-6.39,4.84c-1.39-1.3-3-2.43-4-1.82s-.73,2.64-.24,4.42c-3.35,2-5.87,3.15-5.87,3.15a67.5,67.5,0,0,1-2.24-9.53c.17-.33.34-.67.49-1,.54-1.25,0-1.78-.88-2a33.52,33.52,0,0,1-.05-6.86c3.8-.8,8.42-2.28,6.69-4.55-1.05-1.38-3-1.53-4.94-1.19a7.9,7.9,0,0,1,.93-1.28c6.92-7.62,11.74,0,11.74,0,4-3.35,9.66-2.44,10.88,2.79C277.55,283.6,273.23,282.74,273,284.56Z" style="opacity:0.1;isolation:isolate"></path><path d="M264.34,340.55l1-.09c0-.51-4.1-51.52,7.35-56.33a3.85,3.85,0,0,1,3.47.09c4.14,2.15,6.12,11.08,6.14,11.17l1-.21c-.09-.39-2.1-9.48-6.65-11.85a4.89,4.89,0,0,0-4.32-.12C260.19,288.3,264.17,338.42,264.34,340.55Z" style="fill:#263238"></path><path d="M262.9,339.44c.2-2.29,4.87-56.27-3.86-62-2.1-1.37-4-1.66-5.55-.86-4.13,2.08-4.67,10.91-4.69,11.28l1,.06c0-.08.53-8.62,4.15-10.45,1.24-.62,2.77-.35,4.55.81,8.24,5.41,3.46,60.52,3.41,61.07Z" style="fill:#263238"></path><path d="M261.59,343.8c.06-1.75,1.5-43.07-6.46-46.68a5.55,5.55,0,0,0-4.73,0c-5.46,2.4-8.83,12.58-9,13l.95.31c0-.1,3.37-10.18,8.42-12.41a4.6,4.6,0,0,1,3.92,0c6.1,2.77,6.3,34,5.87,45.74Z" style="fill:#263238"></path><path d="M263.61,341.91l1-.11c-1.4-12.29-4.08-45.06.3-49a1.72,1.72,0,0,1,1.79-.55c2.94,1.12,4.72,11.78,5.16,15.79l1-.11c-.17-1.53-1.77-15.07-5.8-16.62a2.66,2.66,0,0,0-2.82.75C258.57,297.14,263.4,340.09,263.61,341.91Z" style="fill:#263238"></path><path d="M275.4,303.84c.38,1,3.17.21,5.36-.58.75,1.74.58,4-.07,6.41-2.5,0-6,.08-6.31.7s3.45.94,5.77,1a40.53,40.53,0,0,1-2.28,5.17c-1.29-.32-2.68-.47-3.07.24s.46,1.88,1.37,2.81c-1.4,2.36-2.54,3.95-2.54,3.95a48.57,48.57,0,0,1-4.65-5.1c0-.27,0-.53-.05-.81-.09-1-.6-1.1-1.21-.9a24,24,0,0,1-2.39-4.22c2.07-1.79,4.41-4.29,2.57-5.1-1.12-.49-2.35.07-3.46,1a6.88,6.88,0,0,1,.14-1.11c1.66-7.06,7.24-4,7.24-4,1.33-3.44,5.12-4.82,7.67-2C277.9,301.68,274.94,302.63,275.4,303.84Z" style="fill:#6FD08C"></path><path d="M275.4,303.84c.38,1,3.17.21,5.36-.58.75,1.74.58,4-.07,6.41-2.5,0-6,.08-6.31.7s3.45.94,5.77,1a40.53,40.53,0,0,1-2.28,5.17c-1.29-.32-2.68-.47-3.07.24s.46,1.88,1.37,2.81c-1.4,2.36-2.54,3.95-2.54,3.95a48.57,48.57,0,0,1-4.65-5.1c0-.27,0-.53-.05-.81-.09-1-.6-1.1-1.21-.9a24,24,0,0,1-2.39-4.22c2.07-1.79,4.41-4.29,2.57-5.1-1.12-.49-2.35.07-3.46,1a6.88,6.88,0,0,1,.14-1.11c1.66-7.06,7.24-4,7.24-4,1.33-3.44,5.12-4.82,7.67-2C277.9,301.68,274.94,302.63,275.4,303.84Z" style="opacity:0.1;isolation:isolate"></path><path d="M248.73,308.61a14,14,0,0,1,3.28.7,7.36,7.36,0,0,0,.48-2.38c.23-7.25-5-4.19-7.69-6.32a5.93,5.93,0,0,0-4.59-1.44,11,11,0,0,1,.62,1.24A1.14,1.14,0,0,1,240,302a3.22,3.22,0,0,1-2-.24,6.18,6.18,0,0,1-.53-.36,9.87,9.87,0,0,0-1,2.42,14.08,14.08,0,0,0-.47,3.1,10.37,10.37,0,0,1,1.21.34,1.13,1.13,0,0,1,.46,1.72,5,5,0,0,1-1.5,1.05,16.82,16.82,0,0,0,.91,3.4c.13,0,.25,0,.37.06.27.05.53.12.78.19a2.32,2.32,0,0,1,.44.16,1.16,1.16,0,0,1,.68.88,1.13,1.13,0,0,1-.43,1,4.34,4.34,0,0,1-.54.33,8,8,0,0,0,2.87,2.9,31.08,31.08,0,0,0,3-1.61c-.21-.29-.43-.58-.63-.88a1.74,1.74,0,0,1-.31-1.14,1.5,1.5,0,0,1,.59-1,1.53,1.53,0,0,1,2.16.28c.24.35.5.69.77,1a18.82,18.82,0,0,0,3.68-3.57l-.11,0a11,11,0,0,0-2-.34,1.54,1.54,0,0,1,.4-3.06Z" style="fill:#6FD08C"></path><path d="M248.73,308.61a14,14,0,0,1,3.28.7,7.36,7.36,0,0,0,.48-2.38c.23-7.25-5-4.19-7.69-6.32a5.93,5.93,0,0,0-4.59-1.44,11,11,0,0,1,.62,1.24A1.14,1.14,0,0,1,240,302a3.22,3.22,0,0,1-2-.24,6.18,6.18,0,0,1-.53-.36,9.87,9.87,0,0,0-1,2.42,14.08,14.08,0,0,0-.47,3.1,10.37,10.37,0,0,1,1.21.34,1.13,1.13,0,0,1,.46,1.72,5,5,0,0,1-1.5,1.05,16.82,16.82,0,0,0,.91,3.4c.13,0,.25,0,.37.06.27.05.53.12.78.19a2.32,2.32,0,0,1,.44.16,1.16,1.16,0,0,1,.68.88,1.13,1.13,0,0,1-.43,1,4.34,4.34,0,0,1-.54.33,8,8,0,0,0,2.87,2.9,31.08,31.08,0,0,0,3-1.61c-.21-.29-.43-.58-.63-.88a1.74,1.74,0,0,1-.31-1.14,1.5,1.5,0,0,1,.59-1,1.53,1.53,0,0,1,2.16.28c.24.35.5.69.77,1a18.82,18.82,0,0,0,3.68-3.57l-.11,0a11,11,0,0,0-2-.34,1.54,1.54,0,0,1,.4-3.06Z" style="fill:#fff;opacity:0.2;isolation:isolate"></path><path d="M246.65,283.63a9.81,9.81,0,0,0-2-1.08,5.06,5.06,0,0,1,.79-1.46c3.06-3.9,4.44,0,6.81.06a4.05,4.05,0,0,1,3,1.26,8.2,8.2,0,0,0-.87.38.79.79,0,0,0-.22,1.2,2.29,2.29,0,0,0,1.18.77,2.08,2.08,0,0,0,.43,0,6.53,6.53,0,0,1-.54,1.71,9.28,9.28,0,0,1-1.11,1.84,7.91,7.91,0,0,0-.79-.35.77.77,0,0,0-1,.7,3.8,3.8,0,0,0,.32,1.21,11.13,11.13,0,0,1-2,1.38l-.22-.13a4.44,4.44,0,0,0-.49-.24l-.3-.11a.78.78,0,0,0-1,.9c0,.14.09.28.14.41a5.5,5.5,0,0,1-2.78.27,20.82,20.82,0,0,1-.89-2.19l.72-.19a1.15,1.15,0,0,0,.66-.46,1,1,0,0,0,.14-.79,1.09,1.09,0,0,0-.46-.66,1,1,0,0,0-.8-.14c-.28.08-.57.14-.86.2a13,13,0,0,1-.36-3.49l.07,0a7.82,7.82,0,0,1,1.22.72,1.05,1.05,0,1,0,1.13-1.78Z" style="fill:#6FD08C"></path><path d="M246.65,283.63a9.81,9.81,0,0,0-2-1.08,5.06,5.06,0,0,1,.79-1.46c3.06-3.9,4.44,0,6.81.06a4.05,4.05,0,0,1,3,1.26,8.2,8.2,0,0,0-.87.38.79.79,0,0,0-.22,1.2,2.29,2.29,0,0,0,1.18.77,2.08,2.08,0,0,0,.43,0,6.53,6.53,0,0,1-.54,1.71,9.28,9.28,0,0,1-1.11,1.84,7.91,7.91,0,0,0-.79-.35.77.77,0,0,0-1,.7,3.8,3.8,0,0,0,.32,1.21,11.13,11.13,0,0,1-2,1.38l-.22-.13a4.44,4.44,0,0,0-.49-.24l-.3-.11a.78.78,0,0,0-1,.9c0,.14.09.28.14.41a5.5,5.5,0,0,1-2.78.27,20.82,20.82,0,0,1-.89-2.19l.72-.19a1.15,1.15,0,0,0,.66-.46,1,1,0,0,0,.14-.79,1.09,1.09,0,0,0-.46-.66,1,1,0,0,0-.8-.14c-.28.08-.57.14-.86.2a13,13,0,0,1-.36-3.49l.07,0a7.82,7.82,0,0,1,1.22.72,1.05,1.05,0,1,0,1.13-1.78Z" style="opacity:0.1;isolation:isolate"></path><path d="M275.93,290.88c.21,1.48-3.78,2.44-7,3,.26,2.67,2,5.37,4.49,7.89,3.09-1.74,7.49-4,8.3-3.47s-3.62,3.53-6.44,5.24a58,58,0,0,0,6.39,4.84c1.38-1.29,3-2.43,4-1.81s.73,2.63.23,4.42c3.36,1.95,5.87,3.14,5.87,3.14a67.5,67.5,0,0,0,2.24-9.53c-.17-.33-.33-.67-.49-1-.54-1.26,0-1.79.88-2a33.63,33.63,0,0,0,.06-6.87c-3.8-.8-8.42-2.27-6.69-4.55,1-1.37,3-1.53,4.94-1.18a8.61,8.61,0,0,0-.94-1.28c-6.91-7.62-11.74,0-11.74,0-4-3.35-9.66-2.45-10.88,2.79C271.35,289.93,275.67,289.07,275.93,290.88Z" style="fill:#6FD08C"></path><path d="M275.93,290.88c.21,1.48-3.78,2.44-7,3,.26,2.67,2,5.37,4.49,7.89,3.09-1.74,7.49-4,8.3-3.47s-3.62,3.53-6.44,5.24a58,58,0,0,0,6.39,4.84c1.38-1.29,3-2.43,4-1.81s.73,2.63.23,4.42c3.36,1.95,5.87,3.14,5.87,3.14a67.5,67.5,0,0,0,2.24-9.53c-.17-.33-.33-.67-.49-1-.54-1.26,0-1.79.88-2a33.63,33.63,0,0,0,.06-6.87c-3.8-.8-8.42-2.27-6.69-4.55,1-1.37,3-1.53,4.94-1.18a8.61,8.61,0,0,0-.94-1.28c-6.91-7.62-11.74,0-11.74,0-4-3.35-9.66-2.45-10.88,2.79C271.35,289.93,275.67,289.07,275.93,290.88Z" style="fill:#fff;opacity:0.2;isolation:isolate"></path><polygon points="245.24 325.7 249.16 358.16 276.52 358.16 280.45 325.7 245.24 325.7" style="fill:#6FD08C"></polygon><polygon points="245.23 325.7 245.77 330.19 245.9 331.25 246.42 335.48 246.54 336.54 247.44 343.95 247.57 345.01 249.16 358.16 276.52 358.16 278.11 345.01 278.24 343.95 279.13 336.54 279.26 335.48 279.78 331.25 279.91 330.19 280.45 325.7 245.23 325.7" style="fill:#fff;opacity:0.4;isolation:isolate"></polygon><g style="opacity:0.2"><polygon points="245.77 330.19 245.9 331.25 279.78 331.25 279.91 330.19 245.77 330.19" style="fill:#fff"></polygon></g><g style="opacity:0.2"><polygon points="246.42 335.48 246.54 336.54 279.13 336.54 279.26 335.48 246.42 335.48" style="fill:#fff"></polygon></g><g style="opacity:0.2"><polygon points="247.44 343.95 247.57 345.01 278.11 345.01 278.24 343.95 247.44 343.95" style="fill:#fff"></polygon></g><path d="M221.81,333.87s2.91-19.46-5.13-29.43,6.69-.52,8.9,9.12c0,0,1.37-17.57-6.56-29.4s6.13-2.57,8,10c0,0,1.26-15.68-2.57-24.22s2.25-3.26,4.79,2.08.46,19.08.46,19.08,4.25-25.42,9.82-23.76-7,18.92-8.41,27.58c0,0,5.74-11.89,10.76-9.79s-7.34,4-12,21.54l-1.52,8.16s5.24-11.71,9.32-8.36-10.88,10.46-13.4,27.88Z" style="fill:#263238"></path><path d="M222.68,334.93s-.62-24.28,10.74-35.27-8.12-1.66-12.29,9.83c0,0,1-21.74,12.48-35s-7.12-4.08-11.35,11c0,0,.83-19.4,6.81-29.27s-2.27-4.35-6.19,1.81-3.45,23.31-3.45,23.31-1.35-31.79-8.44-30.59,5.77,24.24,6.13,35.06c0,0-5.22-15.44-11.7-13.63s8.39,6.07,11.44,28.2l.62,10.23s-4.63-15.14-10.15-11.65,11.75,14.45,12.21,36.17Z" style="fill:#263238"></path><path d="M222.68,334.93s-.62-24.28,10.74-35.27-8.12-1.66-12.29,9.83c0,0,1-21.74,12.48-35s-7.12-4.08-11.35,11c0,0,.83-19.4,6.81-29.27s-2.27-4.35-6.19,1.81-3.45,23.31-3.45,23.31-1.35-31.79-8.44-30.59,5.77,24.24,6.13,35.06c0,0-5.22-15.44-11.7-13.63s8.39,6.07,11.44,28.2l.62,10.23s-4.63-15.14-10.15-11.65,11.75,14.45,12.21,36.17Z" style="fill:#fff;opacity:0.2;isolation:isolate"></path><polygon points="205.24 325.7 209.16 358.16 236.52 358.16 240.45 325.7 205.24 325.7" style="fill:#6FD08C"></polygon><polygon points="205.23 325.7 205.77 330.19 205.9 331.25 206.42 335.48 206.54 336.54 207.44 343.95 207.57 345.01 209.16 358.16 236.52 358.16 238.11 345.01 238.24 343.95 239.13 336.54 239.26 335.48 239.78 331.25 239.91 330.19 240.45 325.7 205.23 325.7" style="fill:#fff;opacity:0.4;isolation:isolate"></polygon><g style="opacity:0.2"><polygon points="205.77 330.19 205.9 331.25 239.78 331.25 239.91 330.19 205.77 330.19" style="fill:#fff"></polygon></g><g style="opacity:0.2"><polygon points="206.42 335.48 206.54 336.54 239.13 336.54 239.26 335.48 206.42 335.48" style="fill:#fff"></polygon></g><g style="opacity:0.2"><polygon points="207.44 343.95 207.57 345.01 238.11 345.01 238.24 343.95 207.44 343.95" style="fill:#fff"></polygon></g><path d="M182.89,335.1c-.12-.82-2.95-20.32,2.72-27.06a6.1,6.1,0,0,1,4.7-2.31c11.43-.27,13,8.91,13,9l-1.34.21c-.06-.33-1.41-8.1-11.63-7.85a4.78,4.78,0,0,0-3.69,1.83c-5.27,6.27-2.44,25.79-2.41,26Z" style="fill:#263238"></path><path d="M182.2,334.21l-1.36,0c0-.18.45-18-8.31-21.64-8.59-3.6-12.46,3.8-12.62,4.12l-1.22-.62c.05-.09,4.58-8.86,14.36-4.76C182.68,315.31,182.23,333.44,182.2,334.21Z" style="fill:#263238"></path><path d="M182.24,335.61c0-.28-.08-28.42-5.57-36.64-5.26-7.9-13.76-4.19-14.12-4l-.56-1.24c.1,0,9.9-4.38,15.82,4.5,5.71,8.57,5.79,36.23,5.8,37.4Z" style="fill:#263238"></path><path d="M181.76,327.26c0-.29.08-28.42,5.56-36.65,5.27-7.9,13.77-4.18,14.13-4l.56-1.24c-.1,0-9.9-4.37-15.82,4.5-5.71,8.57-5.8,36.23-5.8,37.41Z" style="fill:#263238"></path><polygon points="165.24 325.7 169.16 358.16 196.52 358.16 200.45 325.7 165.24 325.7" style="fill:#6FD08C"></polygon><polygon points="165.23 325.7 165.77 330.19 165.9 331.25 166.42 335.48 166.54 336.54 167.44 343.95 167.57 345.01 169.16 358.16 196.52 358.16 198.11 345.01 198.24 343.95 199.13 336.54 199.26 335.48 199.78 331.25 199.91 330.19 200.45 325.7 165.23 325.7" style="fill:#fff;opacity:0.4;isolation:isolate"></polygon><g style="opacity:0.2"><polygon points="165.77 330.19 165.9 331.25 199.78 331.25 199.91 330.19 165.77 330.19" style="fill:#fff"></polygon></g><g style="opacity:0.2"><polygon points="166.42 335.48 166.54 336.54 199.13 336.54 199.26 335.48 166.42 335.48" style="fill:#fff"></polygon></g><g style="opacity:0.2"><polygon points="167.44 343.95 167.57 345.01 198.11 345.01 198.24 343.95 167.44 343.95" style="fill:#fff"></polygon></g><path d="M191.94,306.4s-5,1.84-3.5,6.19,17.26,11.49,17.26,11.49,6.61-6.06.54-15.91S192.08,303.3,191.94,306.4Z" style="fill:#6FD08C"></path><path d="M176.43,297.48s3.54-.38,3.25-2.53-13.77-7.72-21.73,1.26c0,0,5.1,8.76,12.47,8.87S176.43,297.48,176.43,297.48Z" style="fill:#6FD08C"></path><path d="M172.79,311.9s2.45-2-.19-2.94-15.59-.69-15.72,12.14c0,0,15.08,2.5,16.94-2.38S172.79,311.9,172.79,311.9Z" style="fill:#6FD08C"></path><path d="M191.94,306.4s-5,1.84-3.5,6.19,17.26,11.49,17.26,11.49,6.61-6.06.54-15.91S192.08,303.3,191.94,306.4Z" style="opacity:0.2;isolation:isolate"></path><path d="M176.43,297.48s3.54-.38,3.25-2.53-13.77-7.72-21.73,1.26c0,0,5.1,8.76,12.47,8.87S176.43,297.48,176.43,297.48Z" style="opacity:0.2;isolation:isolate"></path><path d="M187.57,289.13s-3.54-.38-3.26-2.54,13.78-7.71,21.73,1.27c0,0-5.09,8.75-12.46,8.87S187.57,289.13,187.57,289.13Z" style="fill:#6FD08C"></path><path d="M187.57,289.13s-3.54-.38-3.26-2.54,13.78-7.71,21.73,1.27c0,0-5.09,8.75-12.46,8.87S187.57,289.13,187.57,289.13Z" style="opacity:0.2;isolation:isolate"></path><path d="M172.79,311.9s2.45-2-.19-2.94-15.59-.69-15.72,12.14c0,0,15.08,2.5,16.94-2.38S172.79,311.9,172.79,311.9Z" style="opacity:0.2;isolation:isolate"></path><path d="M185,316.85s5.1-1.5,6.5,2.87-7,19.52-7,19.52-8.92-.91-9.94-12.43S183,314.44,185,316.85Z" style="fill:#6FD08C"></path><path d="M185,316.85s5.1-1.5,6.5,2.87-7,19.52-7,19.52-8.92-.91-9.94-12.43S183,314.44,185,316.85Z" style="opacity:0.2;isolation:isolate"></path><path d="M319.22,315.15s4.5-12-4.56-12.6S315.12,313.68,319.22,315.15Z" style="fill:#6FD08C"></path><path d="M311,324.14s-2.24-11.14-8.78-9.09S304.52,324.07,311,324.14Z" style="fill:#6FD08C"></path><path d="M321.83,325.55s-.6-8.84,6.25-8.72S331.55,324.54,321.83,325.55Z" style="fill:#6FD08C"></path><path d="M316.53,343.31s9.52-7.79,12.56-1.57S321.86,348.8,316.53,343.31Z" style="fill:#6FD08C"></path><path d="M300.36,341.17s-1.15-13.65-8.74-9.7S293.85,342.26,300.36,341.17Z" style="fill:#6FD08C"></path><path d="M293,360.34s6.05-13.49-4.18-12.37S286,356.71,293,360.34Z" style="fill:#6FD08C"></path><path d="M308.41,365.89s9-9.74,15.43-6.26S324.48,372.94,308.41,365.89Z" style="fill:#6FD08C"></path><g style="opacity:0.2;isolation:isolate"><path d="M319.22,315.15s4.5-12-4.56-12.6S315.12,313.68,319.22,315.15Z" style="fill:#fff"></path><path d="M311,324.14s-2.24-11.14-8.78-9.09S304.52,324.07,311,324.14Z" style="fill:#fff"></path><path d="M321.83,325.55s-.6-8.84,6.25-8.72S331.55,324.54,321.83,325.55Z" style="fill:#fff"></path><path d="M316.53,343.31s9.52-7.79,12.56-1.57S321.86,348.8,316.53,343.31Z" style="fill:#fff"></path><path d="M300.36,341.17s-1.15-13.65-8.74-9.7S293.85,342.26,300.36,341.17Z" style="fill:#fff"></path><path d="M293,360.34s6.05-13.49-4.18-12.37S286,356.71,293,360.34Z" style="fill:#fff"></path><path d="M308.41,365.89s9-9.74,15.43-6.26S324.48,372.94,308.41,365.89Z" style="fill:#fff"></path></g><path d="M314.61,331.66l-.16,0a.51.51,0,0,1-.29-.27c0-.06-3.21-6.85-5.75-8.52a.5.5,0,0,1-.14-.7A.51.51,0,0,1,309,322c2.38,1.57,5.09,6.84,5.88,8.47a32.3,32.3,0,0,0,9-8,.5.5,0,1,1,.8.59c-.17.23-4.28,5.76-9.79,8.55A.59.59,0,0,1,314.61,331.66Z" style="fill:#263238"></path><path d="M305.59,348.16h-.12a.56.56,0,0,1-.33-.25c0-.08-4.05-7.51-9.46-11a.5.5,0,0,1,.55-.84c4.87,3.15,8.52,9.14,9.53,10.89,8.06-5.31,17.48-4.67,17.88-4.65a.51.51,0,0,1,.46.54.49.49,0,0,1-.53.46c-.1,0-9.84-.65-17.7,4.78A.47.47,0,0,1,305.59,348.16Z" style="fill:#263238"></path><path d="M299.35,370.2a.5.5,0,0,1-.33-.12c-5.3-4.63-9-15.74-9.19-16.21a.5.5,0,0,1,.95-.31c0,.11,3.68,10.95,8.65,15.54,1.93-1,12.11-6,19.77-5.77a.5.5,0,0,1,.49.51.48.48,0,0,1-.51.49c-8.07-.17-19.48,5.76-19.6,5.82A.59.59,0,0,1,299.35,370.2Z" style="fill:#263238"></path><path d="M304.85,394.91a.5.5,0,0,1-.5-.44,67.66,67.66,0,0,0-3.27-13.71c-2.67-8.34-5-15.55,1.25-27.72,1.92-3.75,3.87-7.24,5.75-10.61,6.93-12.44,12.41-22.26,9.15-32.36a.5.5,0,1,1,.95-.3c3.39,10.51-2.18,20.5-9.23,33.14-1.88,3.37-3.82,6.85-5.73,10.59-6,11.8-3.89,18.49-1.19,27a68.8,68.8,0,0,1,3.31,13.9.5.5,0,0,1-.44.55Z" style="fill:#263238"></path><polygon points="284.24 384.7 288.16 417.16 315.52 417.16 319.45 384.7 284.24 384.7" style="fill:#6FD08C"></polygon><polygon points="284.23 384.7 284.77 389.19 284.9 390.25 285.42 394.48 285.55 395.54 286.44 402.95 286.57 404.01 288.16 417.16 315.52 417.16 317.11 404.01 317.24 402.95 318.13 395.54 318.26 394.48 318.78 390.25 318.91 389.19 319.45 384.7 284.23 384.7" style="fill:#fff;opacity:0.4;isolation:isolate"></polygon><g style="opacity:0.2"><polygon points="284.77 389.19 284.9 390.25 318.78 390.25 318.91 389.19 284.77 389.19" style="fill:#fff"></polygon></g><g style="opacity:0.2"><polygon points="285.42 394.48 285.55 395.54 318.13 395.54 318.26 394.48 285.42 394.48" style="fill:#fff"></polygon></g><g style="opacity:0.2"><polygon points="286.44 402.95 286.57 404.01 317.11 404.01 317.24 402.95 286.44 402.95" style="fill:#fff"></polygon></g><path d="M233.62,368.44s4.24.69,6.52,5.77,8.41,7.9,12.21,7.46c1.53-.17,3,.46,4.77,1.33.49.23,1,.49,1.53.75-.1-.51-.19-1-.26-1.59-.43-.29-.85-.6-1.27-.94l-.29-.24c-4.88-4.11-5.32-8.74-10.95-12.57S233.62,368.44,233.62,368.44Z" style="fill:#263238"></path><path d="M277,355s-1.21,4.12-6.53,5.75-8.9,7.35-8.95,11.17c0,1.54-.83,2.93-1.91,4.57-.29.45-.61.92-.94,1.42.52,0,.09,2,.64,2,.34-.39.95-2.14,2.06-3.16l.27-.26c4.7-4.32,9.35-4.17,13.86-9.28S277,355,277,355Z" style="fill:#263238"></path><path d="M259.53,376.39a29.78,29.78,0,0,1-.33,8.7c-1.93,10.19-1.43.23-1.43.23a25.31,25.31,0,0,0,.49-7.79c0-.52-.1-1-.18-1.6a23.94,23.94,0,0,0-1.59-5.77c-3.24-7.7-8.84-9.78-11.54-18.09s4.35-14.81,4.35-14.81-.66,5.37,4.68,9.9,6.6,12.95,4.73,17.39c-1.09,2.59-.09,5.67.56,9.83C259.36,375,259.46,375.69,259.53,376.39Z" style="fill:#263238"></path><path d="M246.37,359.44s3.56,2.41,3.5,8,4.32,10.71,7.95,11.9c1.46.48,2.55,1.68,3.78,3.2.34.42.69.87,1.07,1.33.12-.5.27-1,.44-1.55-.27-.44-.53-.9-.77-1.39,0-.11-.1-.22-.16-.33-2.7-5.79-1.15-10.18-4.66-16S246.37,359.44,246.37,359.44Z" style="fill:#263238"></path><path d="M291.43,365.47s-2.84,3.23-8.35,2.47-11.16,2.94-12.81,6.39c-.66,1.39-2,2.32-3.65,3.35-.45.29-.94.58-1.45.89.49.19-.74,1.82-.24,2.06a14.74,14.74,0,0,1,3.2-2l.35-.12c6.08-2,10.24.13,16.47-2.61S291.43,365.47,291.43,365.47Z" style="fill:#263238"></path><path d="M266.56,377.53a29.91,29.91,0,0,1-3.95,7.75c-6,8.45-1.39-.38-1.39-.38a25.53,25.53,0,0,0,3.71-6.87c.18-.49.35-1,.5-1.53a23.25,23.25,0,0,0,1-5.9c.3-8.35-3.92-12.59-2.88-21.26s10.16-11.63,10.16-11.63-2.85,4.6.09,11,.56,14.52-3,17.77c-2.07,1.89-2.46,5.11-3.62,9.15C267,376.22,266.78,376.86,266.56,377.53Z" style="fill:#263238"></path><polygon points="244.24 384.7 248.16 417.16 275.52 417.16 279.45 384.7 244.24 384.7" style="fill:#6FD08C"></polygon><polygon points="244.23 384.7 244.77 389.19 244.9 390.25 245.42 394.48 245.54 395.54 246.44 402.95 246.57 404.01 248.16 417.16 275.52 417.16 277.11 404.01 277.24 402.95 278.13 395.54 278.26 394.48 278.78 390.25 278.91 389.19 279.45 384.7 244.23 384.7" style="fill:#fff;opacity:0.4;isolation:isolate"></polygon><g style="opacity:0.2"><polygon points="244.77 389.19 244.9 390.25 278.78 390.25 278.91 389.19 244.77 389.19" style="fill:#fff"></polygon></g><g style="opacity:0.2"><polygon points="245.42 394.48 245.54 395.54 278.13 395.54 278.26 394.48 245.42 394.48" style="fill:#fff"></polygon></g><g style="opacity:0.2"><polygon points="246.44 402.95 246.57 404.01 277.11 404.01 277.24 402.95 246.44 402.95" style="fill:#fff"></polygon></g><g style="opacity:0.1;isolation:isolate"><path d="M246.37,359.44s3.56,2.41,3.5,8,4.32,10.71,7.95,11.9c1.46.48,2.55,1.68,3.78,3.2.34.42.69.87,1.07,1.33.12-.5.27-1,.44-1.55-.27-.44-.53-.9-.77-1.39,0-.11-.1-.22-.16-.33-2.7-5.79-1.15-10.18-4.66-16S246.37,359.44,246.37,359.44Z" style="fill:#fff"></path><path d="M291.43,365.47s-2.84,3.23-8.35,2.47-11.16,2.94-12.81,6.39c-.66,1.39-2,2.32-3.65,3.35-.45.29-.94.58-1.45.89.49.19-.74,1.82-.24,2.06a14.74,14.74,0,0,1,3.2-2l.35-.12c6.08-2,10.24.13,16.47-2.61S291.43,365.47,291.43,365.47Z" style="fill:#fff"></path><path d="M266.56,377.53a29.91,29.91,0,0,1-3.95,7.75c-6,8.45-1.39-.38-1.39-.38a25.53,25.53,0,0,0,3.71-6.87c.18-.49.35-1,.5-1.53a23.25,23.25,0,0,0,1-5.9c.3-8.35-3.92-12.59-2.88-21.26s10.16-11.63,10.16-11.63-2.85,4.6.09,11,.56,14.52-3,17.77c-2.07,1.89-2.46,5.11-3.62,9.15C267,376.22,266.78,376.86,266.56,377.53Z" style="fill:#fff"></path></g><path d="M226.82,395.46s15.24-15.56,14.28-19.4-8.25,5.39-8.25,5.39S247.47,360,245.59,356.6s-13.79,18.09-13.79,18.09,10.8-26.17,8.64-28.4-11.29,23.22-11.29,23.22,6.55-27.86,3.16-28.45-7.39,24.29-7.39,24.29-1.77-20.39-5.26-20.66-.47,20.41-.47,20.41-5.32-13.55-8.6-11.75,3.31,16.87,3.31,16.87-7.11-8.14-10.21-6.1,6.58,11.41,6.58,11.41-10.09-.41-10.15,2.11,8.09,4.66,8.09,4.66S206.65,399.93,226.82,395.46Z" style="fill:#6FD08C"></path><path d="M217,376.89a.5.5,0,0,1-.49-.39c-2.68-11.84-6.55-25.17-14.94-34.22a.5.5,0,0,1,.74-.68c8.54,9.22,12.46,22.71,15.17,34.68a.49.49,0,0,1-.37.6Z" style="fill:#263238"></path><path d="M200.16,341.86a1.78,1.78,0,1,0,1.86-1.7A1.77,1.77,0,0,0,200.16,341.86Z" style="fill:#263238"></path><path d="M205.21,356.47a1.53,1.53,0,1,0,1.6-1.45A1.52,1.52,0,0,0,205.21,356.47Z" style="fill:#263238"></path><path d="M212.17,352.37a1.52,1.52,0,1,0,1.59-1.45A1.52,1.52,0,0,0,212.17,352.37Z" style="fill:#263238"></path><path d="M207,362.08a1.52,1.52,0,1,0,1.59-1.45A1.51,1.51,0,0,0,207,362.08Z" style="fill:#263238"></path><path d="M214,360.23a1.52,1.52,0,1,0,1.59-1.46A1.52,1.52,0,0,0,214,360.23Z" style="fill:#263238"></path><path d="M207.2,344a1.52,1.52,0,1,0,1.59-1.45A1.52,1.52,0,0,0,207.2,344Z" style="fill:#263238"></path><path d="M199.92,349.25a1.52,1.52,0,1,0,1.59-1.45A1.52,1.52,0,0,0,199.92,349.25Z" style="fill:#263238"></path><path d="M208.85,352.06l-7.4-2.2a.5.5,0,0,1-.33-.62.51.51,0,0,1,.62-.34l6.17,1.84.31-6.72a.48.48,0,0,1,.52-.48.5.5,0,0,1,.48.52Z" style="fill:#263238"></path><path d="M211.75,358.74l-5.16-1.41a.51.51,0,0,1-.35-.62.5.5,0,0,1,.61-.35l4.3,1.18,2.07-5.28a.5.5,0,0,1,.65-.28.49.49,0,0,1,.28.64Z" style="fill:#263238"></path><path d="M214,365.25l-5.74-2.64a.51.51,0,0,1-.25-.67.5.5,0,0,1,.67-.24l4.79,2.21,1.58-3.81a.5.5,0,1,1,.93.39Z" style="fill:#263238"></path><path d="M225.56,376.5a.51.51,0,0,1-.2-.59c4.06-11.45,7.92-24.78,5.67-36.91a.5.5,0,1,1,1-.18c2.29,12.36-1.6,25.85-5.71,37.42a.51.51,0,0,1-.64.31Z" style="fill:#263238"></path><path d="M230.06,337.89a1.78,1.78,0,1,0,2.48-.44A1.77,1.77,0,0,0,230.06,337.89Z" style="fill:#263238"></path><path d="M226.52,352.94a1.52,1.52,0,1,0,2.12-.37A1.52,1.52,0,0,0,226.52,352.94Z" style="fill:#263238"></path><path d="M234.59,353.19a1.52,1.52,0,1,0,2.12-.37A1.52,1.52,0,0,0,234.59,353.19Z" style="fill:#263238"></path><path d="M225,358.63a1.52,1.52,0,1,0,2.12-.37A1.51,1.51,0,0,0,225,358.63Z" style="fill:#263238"></path><path d="M232,360.83a1.52,1.52,0,1,0,2.12-.38A1.52,1.52,0,0,0,232,360.83Z" style="fill:#263238"></path><path d="M234.88,343.44a1.52,1.52,0,1,0,2.12-.38A1.52,1.52,0,0,0,234.88,343.44Z" style="fill:#263238"></path><path d="M225.9,344a1.52,1.52,0,1,0,2.12-.38A1.52,1.52,0,0,0,225.9,344Z" style="fill:#263238"></path><path d="M232,351.16l-5.08-5.81a.5.5,0,0,1,.76-.66l4.23,4.85,3.86-5.52a.48.48,0,0,1,.69-.12.51.51,0,0,1,.13.7Z" style="fill:#263238"></path><path d="M230.84,358.35l-3.62-4a.5.5,0,0,1,.74-.68l3,3.3,4.57-3.36a.5.5,0,1,1,.59.81Z" style="fill:#263238"></path><path d="M229.28,365.08l-3.43-5.3a.5.5,0,1,1,.83-.55l2.88,4.43,3.37-2.37a.5.5,0,1,1,.57.82Z" style="fill:#263238"></path><path d="M217,391.39S194,375.1,188,366.49s17,10.09,17,10.09-13.88-14.06-12.44-16.34,15.65,15,15.65,15-11.53-13.43-7.86-16.12,13.49,16.69,13.49,16.69-4.79-15.92-1.73-16.21,6.49,16.1,6.49,16.1,2.09-13.64,7-13.33-.83,14-.83,14,2.08-6.56,7.2-6.08S228.8,388.35,217,391.39Z" style="fill:#6FD08C"></path><path d="M217,391.39S194,375.1,188,366.49s17,10.09,17,10.09-13.88-14.06-12.44-16.34,15.65,15,15.65,15-11.53-13.43-7.86-16.12,13.49,16.69,13.49,16.69-4.79-15.92-1.73-16.21,6.49,16.1,6.49,16.1,2.09-13.64,7-13.33-.83,14-.83,14,2.08-6.56,7.2-6.08S228.8,388.35,217,391.39Z" style="fill:#fff;opacity:0.2;isolation:isolate"></path><polygon points="204.24 384.7 208.16 417.16 235.52 417.16 239.45 384.7 204.24 384.7" style="fill:#6FD08C"></polygon><polygon points="204.23 384.7 204.77 389.19 204.9 390.25 205.42 394.48 205.54 395.54 206.44 402.95 206.57 404.01 208.16 417.16 235.52 417.16 237.11 404.01 237.24 402.95 238.13 395.54 238.26 394.48 238.78 390.25 238.91 389.19 239.45 384.7 204.23 384.7" style="fill:#fff;opacity:0.4;isolation:isolate"></polygon><g style="opacity:0.2"><polygon points="204.77 389.19 204.9 390.25 238.78 390.25 238.91 389.19 204.77 389.19" style="fill:#fff"></polygon></g><g style="opacity:0.2"><polygon points="205.42 394.48 205.54 395.54 238.13 395.54 238.26 394.48 205.42 394.48" style="fill:#fff"></polygon></g><g style="opacity:0.2"><polygon points="206.44 402.95 206.57 404.01 237.11 404.01 237.24 402.95 206.44 402.95" style="fill:#fff"></polygon></g></g><g id="freepik--waste-bin--inject-13"><path d="M136.11,296.73H74.28L79,284a9.22,9.22,0,0,1,5.85-5.57A9.08,9.08,0,0,1,87.7,278h35a9.23,9.23,0,0,1,8.66,6Z" style="fill:#6FD08C"></path><path d="M89.11,296.73H74.28L79,284a9.22,9.22,0,0,1,5.85-5.57c1.06.84,1.93,2.86,2.33,5.57Z" style="opacity:0.30000000000000004;isolation:isolate"></path><polygon points="74.28 298.64 136.11 298.64 131.11 417.5 79.28 417.5 74.28 298.64" style="fill:#263238"></polygon><polygon points="89.28 298.64 136.11 298.64 131.11 417.5 91.28 417.5 89.28 298.64" style="fill:#fff;opacity:0.2;isolation:isolate"></polygon><path d="M138.17,295.53V303a2.1,2.1,0,0,1-2.11,2.1H74.33a2.1,2.1,0,0,1-2.11-2.1v-7.45a2.1,2.1,0,0,1,2.11-2.1h61.73A2.1,2.1,0,0,1,138.17,295.53Z" style="fill:#6FD08C"></path><path d="M138.17,295.53V303a2.1,2.1,0,0,1-2.11,2.1H90.33a2.1,2.1,0,0,1-2.11-2.1v-7.45a2.1,2.1,0,0,1,2.11-2.1h45.73A2.1,2.1,0,0,1,138.17,295.53Z" style="fill:#fff;opacity:0.2;isolation:isolate"></path><path d="M96.38,293.43v-5.17a3.93,3.93,0,0,1,3.93-3.93h19.14a6.28,6.28,0,0,1,5.71,3.67l2.48,5.43Z" style="opacity:0.30000000000000004;isolation:isolate"></path><path d="M106.05,346.07l2.75-5.86.74.51-1-4.46-3.76,1.19.85.58-2.77,5.9a6.68,6.68,0,0,0,.08,5.71,4.76,4.76,0,0,0,4.21,2.8l3.67-.05,0-4.36-3.69.05A1.36,1.36,0,0,1,106.05,346.07Z" style="fill:#fff"></path><path d="M113.68,331.2a1.08,1.08,0,0,1,1,.66l3.16,6.27-.74.52,3.78,1.15.95-4.48-.84.59-3.16-6.27a4.46,4.46,0,0,0-8.33.12l-2,4.36,3.19,2.17,2.07-4.4A1.08,1.08,0,0,1,113.68,331.2Z" style="fill:#fff"></path><path d="M124.87,343.62,123,339.9l-3.16,2.19,1.89,3.75a1.37,1.37,0,0,1-1,2.05l-5.64.08,0-1-2.7,3.3,2.8,3.23,0-1.15,5.64-.08a4.74,4.74,0,0,0,4.13-2.91A6.68,6.68,0,0,0,124.87,343.62Z" style="fill:#fff"></path></g><g id="freepik--Character--inject-13"><g id="freepik--group--inject-13"><path d="M360.66,184.89s-16,11.53-20.56,24.13c-3.44,9.48,6.84,24.28,6.84,24.28l4.3-3.2s-7.21-13.95-5.37-19.77,10.67-11.61,10.67-11.61Z" style="fill:#e4897b"></path><path d="M345,197.42l5.14,8.83,2.54-1.1,4.28-1.86,2.48-11,3.5-15.52C358.67,178.84,345,197.42,345,197.42Z" style="fill:#6FD08C"></path><path d="M352.69,205.15l4.28-1.86,2.48-11C356.86,195.2,352.85,200.27,352.69,205.15Z" style="opacity:0.2;isolation:isolate"></path><path d="M339.54,220.42c-.22-1.09-5.37-26.64-2-32,3.54-5.57,10-2.45,10.06-2.42l-.45.9c-.23-.12-5.71-2.75-8.77,2-3.19,5,2.05,31,2.1,31.26Z" style="fill:#263238"></path><path d="M340.38,225.52c0-.31-4.44-31.33-18.41-41.32l.58-.82c14.32,10.25,18.64,40.71,18.82,42Z" style="fill:#263238"></path><path d="M340.7,222.11c-.44-1.41-10.6-34.76-3.95-44.61l.83.56c-6.38,9.45,4,43.41,4.07,43.76Z" style="fill:#263238"></path><path d="M339.62,222.34c-.06-.23-5.69-22.81-12.46-24.81a3.81,3.81,0,0,0-3.48.45c-3.14,2.26-3.41,9.39-3.41,9.46l-1,0c0-.32.29-7.69,3.82-10.24a4.77,4.77,0,0,1,4.35-.6c7.32,2.16,12.92,24.57,13.15,25.53Z" style="fill:#263238"></path><path d="M342.1,221.77c-.21-.72-5.25-17.76-1.86-25.33.92-2.05,2.2-3.22,3.83-3.48,3.59-.6,7.45,3.51,7.61,3.69l-.73.68s-3.65-3.89-6.72-3.39c-1.27.21-2.31,1.19-3.07,2.9-3.24,7.24,1.85,24.47,1.9,24.65Z" style="fill:#263238"></path><path d="M341,224.49c-.07-.43-6.76-42.12-13.4-47.73l.64-.76c6.93,5.85,13.47,46.6,13.75,48.33Z" style="fill:#263238"></path><path d="M322.73,201.69s3.4.41,3.12,3.35-9.1,9.77-9.1,9.77S311.7,212,314,204.93,322.19,199.77,322.73,201.69Z" style="fill:#263238"></path><path d="M322.73,201.69s3.4.41,3.12,3.35-9.1,9.77-9.1,9.77S311.7,212,314,204.93,322.19,199.77,322.73,201.69Z" style="fill:#fff;opacity:0.2;isolation:isolate"></path><path d="M335.09,193.29s-3.36.65-2.87,3.56S342,206,342,206s4.83-3.17,2-10.06S335.5,191.33,335.09,193.29Z" style="fill:#263238"></path><path d="M335.09,193.29s-3.36.65-2.87,3.56S342,206,342,206s4.83-3.17,2-10.06S335.5,191.33,335.09,193.29Z" style="fill:#fff;opacity:0.2;isolation:isolate"></path><path d="M334.65,178.89s-2.28.29-2.42-1.11,7.48-6.87,13.8-2.43c0,0-1.89,6.24-6.49,7.4S334.65,178.89,334.65,178.89Z" style="fill:#263238"></path><path d="M334.65,178.89s-2.28.29-2.42-1.11,7.48-6.87,13.8-2.43c0,0-1.89,6.24-6.49,7.4S334.65,178.89,334.65,178.89Z" style="fill:#fff;opacity:0.2;isolation:isolate"></path><path d="M329.74,176.59s2.24.49,2.5-.88-6.82-7.53-13.52-3.68c0,0,1.32,6.38,5.79,8S329.74,176.59,329.74,176.59Z" style="fill:#263238"></path><path d="M329.74,176.59s2.24.49,2.5-.88-6.82-7.53-13.52-3.68c0,0,1.32,6.38,5.79,8S329.74,176.59,329.74,176.59Z" style="fill:#fff;opacity:0.2;isolation:isolate"></path><path d="M345.25,195.19s-1.82-.87-.31-1.87,9.66-2.75,11.65,5.27c0,0-9.08,3.81-11,1S345.25,195.19,345.25,195.19Z" style="fill:#263238"></path><path d="M345.25,195.19s-1.82-.87-.31-1.87,9.66-2.75,11.65,5.27c0,0-9.08,3.81-11,1S345.25,195.19,345.25,195.19Z" style="fill:#fff;opacity:0.2;isolation:isolate"></path><path d="M321.71,181.75s1.24-1.6-.56-1.81-9.86,1.88-8,9.94c0,0,9.82-.68,10.26-4S321.71,181.75,321.71,181.75Z" style="fill:#263238"></path><path d="M321.71,181.75s1.24-1.6-.56-1.81-9.86,1.88-8,9.94c0,0,9.82-.68,10.26-4S321.71,181.75,321.71,181.75Z" style="fill:#fff;opacity:0.2;isolation:isolate"></path><path d="M328.24,187s-.22-1.53-1.29-.65-4.22,6.44,1.19,9.73c0,0,4.86-5.77,3.26-7.8S328.24,187,328.24,187Z" style="fill:#263238"></path><path d="M328.24,187s-.22-1.53-1.29-.65-4.22,6.44,1.19,9.73c0,0,4.86-5.77,3.26-7.8S328.24,187,328.24,187Z" style="fill:#fff;opacity:0.2;isolation:isolate"></path><path d="M344.39,185.46s-1.2-1,.1-1.45,7.7-.29,7.72,6c0,0-7.45,1.19-8.35-1.23S344.39,185.46,344.39,185.46Z" style="fill:#263238"></path><path d="M344.39,185.46s-1.2-1,.1-1.45,7.7-.29,7.72,6c0,0-7.45,1.19-8.35-1.23S344.39,185.46,344.39,185.46Z" style="fill:#fff;opacity:0.2;isolation:isolate"></path><polygon points="356.02 242.1 330.45 245.6 323.85 217.98 354.94 213.72 356.02 242.1" style="fill:#263238"></polygon><polygon points="356.02 242.1 330.45 245.6 323.85 217.98 354.94 213.72 356.02 242.1" style="fill:#fff;opacity:0.5;isolation:isolate"></polygon><rect x="322.33" y="212.73" width="34.14" height="6.24" transform="translate(-26.16 48.08) rotate(-7.8)" style="fill:#263238"></rect><rect x="322.33" y="212.73" width="34.14" height="6.24" transform="translate(-26.16 48.08) rotate(-7.8)" style="fill:#fff;opacity:0.2;isolation:isolate"></rect><path d="M390.44,171.54s-14.56.13-18.7,2.18,8.86,15.91,13.07,13.52S394.5,177.31,390.44,171.54Z" style="fill:#6FD08C"></path><path d="M390.44,171.54s-14.56.13-18.7,2.18,8.86,15.91,13.07,13.52S394.5,177.31,390.44,171.54Z" style="opacity:0.2;isolation:isolate"></path><path d="M390.5,408.74h9.36a.68.68,0,0,1,.66.52l1.52,6.86a1.14,1.14,0,0,1-.88,1.35,1.07,1.07,0,0,1-.25,0c-3-.05-5.23-.24-9-.24-2.35,0-9.41.25-12.64.25s-3.66-3.2-2.34-3.49c5.94-1.3,10.41-3.09,12.31-4.79A1.83,1.83,0,0,1,390.5,408.74Z" style="fill:#6FD08C"></path><path d="M350.82,408.49h9.36a.68.68,0,0,1,.66.53l1.51,6.86a1.14,1.14,0,0,1-.87,1.35l-.25,0c-3-.05-5.24-.23-9-.23-2.34,0-9.4.24-12.64.24s-3.65-3.19-2.33-3.49c5.94-1.29,10.41-3.08,12.31-4.79A1.86,1.86,0,0,1,350.82,408.49Z" style="fill:#6FD08C"></path><path d="M395.47,235.28H354.58c-3.88,21.22-16.05,107.42-7.32,174.35H361.1S359.82,308,372,275.13c1.4,17.58,15.69,134.43,15.69,134.43h14.09s-2.1-44-4.21-85.48C396.28,297.94,395.52,240.64,395.47,235.28Z" style="fill:#263238"></path><path d="M372,275.14a109.38,109.38,0,0,0-4.56,17.68c-1.14-15.64,3.43-32.23,3.43-32.23Z" style="opacity:0.2;isolation:isolate"></path><path d="M402.81,176.59a184.66,184.66,0,0,0-39.86.2s-6.81,31.15-7.49,61h41.16S396.66,195.69,402.81,176.59Z" style="fill:#6FD08C"></path><path d="M402.81,176.59a184.66,184.66,0,0,0-39.86.2s-6.81,31.15-7.49,61h41.16S396.66,195.69,402.81,176.59Z" style="fill:#fff;opacity:0.8;isolation:isolate"></path><path d="M388.34,177.42c-3.53,3.21-12.2,2-12.2,2s-5.4-1.48-4.27-3.17c3.19-.53,4.73-2,5.37-3.91a9.49,9.49,0,0,0,.32-3.64,19.78,19.78,0,0,0-.27-2L388,158.76C386.6,164,384.88,173.62,388.34,177.42Z" style="fill:#e4897b"></path><path d="M385.53,163.8c-.43,6.42-5.71,8.2-8.29,8.56a9.49,9.49,0,0,0,.32-3.64Z" style="opacity:0.2;isolation:isolate"></path><path d="M366,143.88s-1.6,10.31,3.87,14.3S375.43,143,375.43,143Z" style="fill:#263238"></path><path d="M387.68,162.14a11.42,11.42,0,0,1-1.9,4.29A9.36,9.36,0,0,1,375,170a10.45,10.45,0,0,1-5.94-4.86h0a10.13,10.13,0,0,1-.49-1c-2.68-6.31-3.5-17.34,3.18-21.45a10.15,10.15,0,0,1,15.48,7.69C387.79,155.4,388.34,159,387.68,162.14Z" style="fill:#e4897b"></path><path d="M376.49,154.31c.14.58-.13,1.13-.52,1.19s-.79-.37-.89-1,.14-1.13.52-1.19S376.39,153.71,376.49,154.31Z" style="fill:#263238"></path><path d="M369.76,155.44c.14.58-.14,1.13-.53,1.19s-.78-.37-.88-1,.14-1.13.52-1.2S369.66,154.87,369.76,155.44Z" style="fill:#263238"></path><path d="M372,155.37a22,22,0,0,1-2,5.57,3.53,3.53,0,0,0,3,.06Z" style="fill:#de5753"></path><path d="M366.78,153a.38.38,0,0,0,.37-.07,2.84,2.84,0,0,1,2.46-.71A.35.35,0,0,0,370,152a.35.35,0,0,0-.25-.43h0a3.49,3.49,0,0,0-3.11.86.34.34,0,0,0,0,.49h0A.71.71,0,0,0,366.78,153Z" style="fill:#263238"></path><path d="M377.37,151.39a.29.29,0,0,0,.18-.1.35.35,0,0,0-.11-.49h0a3.5,3.5,0,0,0-3.22-.27.34.34,0,0,0-.16.47h0a.36.36,0,0,0,.47.16h0a2.84,2.84,0,0,1,2.55.26A.39.39,0,0,0,377.37,151.39Z" style="fill:#263238"></path><path d="M373.68,162.81a18.32,18.32,0,0,1,1.37,2.46l.48-.14c2.16-.63,3-1.64,3.18-2.57a2.83,2.83,0,0,0,0-1.37,2.61,2.61,0,0,0-.28-.73,10.64,10.64,0,0,1-4,2.12C374,162.73,373.68,162.81,373.68,162.81Z" style="fill:#263238"></path><path d="M374.41,162.58l.43.71c2-.6,3.38-1.3,3.83-2.1a2.61,2.61,0,0,0-.28-.73A10.64,10.64,0,0,1,374.41,162.58Z" style="fill:#fff"></path><path d="M375.53,165.13c2.16-.63,3-1.64,3.18-2.57a7.32,7.32,0,0,0-2.26,1.18A2.78,2.78,0,0,0,375.53,165.13Z" style="fill:#de5753"></path><path d="M380.34,145.47s-16.41,5.6-14.51-5.46c0,0,8.85-5.22,16.57-3.76s7.11,9.46,7.11,9.46Z" style="fill:#263238"></path><path d="M387.68,162.14a11.42,11.42,0,0,1-1.9,4.29A9.36,9.36,0,0,1,375,170a10.45,10.45,0,0,1-5.94-4.86h0a11.67,11.67,0,0,1,.93-3.34c.46-.66,3.69-.53,3.69-.53l.33.73-2.3.46s-.2,3.29.52,3.89,3.17,1.25,3.17.92v-1.12l1.05-.33a4.22,4.22,0,0,0,1.65.79c.59,0,2.64-2.18,3-3.56s-1.51-3.3-2-3.63-4.22,2.18-4.22,2.18l-.2-.59s2.84-2.9,4.35-2.64a5.11,5.11,0,0,1,2.25.86,9.53,9.53,0,0,0,2.24-4.82s.92-.33.92,1.39C384.45,157.31,387,161.21,387.68,162.14Z" style="opacity:0.30000000000000004"></path><path d="M380.35,142.18v3.29a2.44,2.44,0,0,1,1.58,2.9c-.72,2.86,1.33,6.91,3.63,8.35,0,0-.08-1.19.95-1s1.49,6.35-.11,9.52c0,0,2.63-3,3.52-9.67.83-6.16.43-11.17-1.08-13.34Z" style="fill:#263238"></path><path d="M391.45,155.86a7.1,7.1,0,0,1-3.4,4.19c-2.18,1.16-3.81-.66-3.65-3,.15-2.08,1.46-5.26,3.87-5.43S392.07,153.66,391.45,155.86Z" style="fill:#e4897b"></path><path d="M390.49,174.27s-1.11,37.63,7.13,73.16l5.19-4.48s-2.49-44.77,0-66.36Z" style="fill:#6FD08C"></path><path d="M371.74,174.87S361,192.72,356.25,246.23L352,244.15s4.8-51.28,10.91-67.36Z" style="fill:#6FD08C"></path><path d="M401.84,215.83c.29,14.82,1,27.13,1,27.13l-5.2,4.46c-8.24-35.51-7.14-73.15-7.14-73.15l12.34,2.32c-.56,4.87-.87,10.91-1,17.37,0,1.31-.05,2.63-.07,4,0,2.13,0,4.29,0,6.45C401.72,208.25,401.77,212.12,401.84,215.83Z" style="fill:#fff;opacity:0.2;isolation:isolate"></path><path d="M371.74,174.87S361,192.72,356.25,246.23L352,244.15s4.8-51.28,10.91-67.36Z" style="fill:#fff;opacity:0.2;isolation:isolate"></path><path d="M390.44,171.54s-1,3.12-2.89,4.44l2.92,7.6v-4.2l.83,1.82,3.64-6.09Z" style="fill:#6FD08C"></path><path d="M374.61,172.84s-3.31,1-6,9.2v-3.38l-2.89,1.43s4.16-5.59,5.19-6.26A12.4,12.4,0,0,1,374.61,172.84Z" style="fill:#6FD08C"></path><path d="M393.5,270.43l22.64.48s6.09,33.61,6.82,36.28-6.82,5.85-12.91,5.6-15.58,2.44-18.74,0S393.5,270.43,393.5,270.43Z" style="fill:#6FD08C"></path><path d="M396.72,271.77s-.54-18.08,3.84-17.54,10.23,5.66,12.42,18.27l1.82-.19s-3.65-14.06-10.22-17.89-9.87.91-10.05,17.16Z" style="fill:#6FD08C"></path><path d="M404,295l1.59-3.84.5.31-.79-2.84-2.37.88.56.35-1.61,3.87a4.31,4.31,0,0,0,.22,3.66,3.08,3.08,0,0,0,2.78,1.67l2.36-.14-.15-2.8-2.37.14A.88.88,0,0,1,404,295Z" style="fill:#fff"></path><path d="M408.43,285.21a.7.7,0,0,1,.66.39l2.21,3.93-.46.36,2.46.62.48-2.9-.52.4L411,284.08a2.87,2.87,0,0,0-5.34.32l-1.18,2.86,2.11,1.3,1.19-2.88A.72.72,0,0,1,408.43,285.21Z" style="fill:#fff"></path><path d="M416,292.85l-1.31-2.33-2,1.49,1.32,2.36a.88.88,0,0,1-.55,1.34l-3.62.22,0-.67-1.64,2.2,1.89,2,0-.73,3.62-.22a3.08,3.08,0,0,0,2.56-2A4.31,4.31,0,0,0,416,292.85Z" style="fill:#fff"></path><path d="M401.84,215.83c-6.83-7.2-5.12-22.41-5.12-22.41s2.16,1.83,5,4.51c0,2.13,0,4.29,0,6.45C401.72,208.25,401.77,212.12,401.84,215.83Z" style="opacity:0.30000000000000004;isolation:isolate"></path><path d="M406.75,196.89s2.94,12.24,2.94,15.52-1.81,36.53-1.81,36.53A2.7,2.7,0,0,1,409,250.4c.23.91-1.58,10-1.58,10l-10.16-2.37s1.58-5.85,2.48-7.85,3.62-2.56,3.62-2.56,1.13-32,.67-34.33-3.38-13.52-3.38-13.52Z" style="fill:#e4897b"></path><path d="M402.82,176.59c4.31,2,8,29.25,8,29.25l-11.51,2.37-2.19-10.77a27.3,27.3,0,0,1,.91-11.33C399.83,179.72,402.82,176.59,402.82,176.59Z" style="fill:#6FD08C"></path><path d="M375.74,203.46c.38-1,2.22-1.74,4.31-2.29s2.58-.56,2.58.41-3.34,1.67-3.34,1.67,3.68-.2,3.82-.76a7.6,7.6,0,0,0-.07-2s1.26-.42,1.39-1.46.35-3.27,1.05-3.27h1.32s0,5.64-1.25,7-6.68,3.2-6.68,3.2v1.88h-3.41A9,9,0,0,1,375.74,203.46Z" style="fill:#6FD08C;opacity:0.30000000000000004;isolation:isolate"></path><path d="M374.75,203.24c-.14-1-1.49-2-3.08-2.86s-2-.9-2.14.06,2.4,2.11,2.4,2.11-2.93-.72-2.94-1.29a9.25,9.25,0,0,1,.38-1.91,2,2,0,0,1-.87-1.63c.07-1.05.28-3.27-.28-3.37l-1.06-.18s-1,5.55-.18,7,4.83,4.08,4.83,4.08l-.32,1.85,2.74.47A11.1,11.1,0,0,0,374.75,203.24Z" style="fill:#6FD08C;opacity:0.30000000000000004;isolation:isolate"></path><path d="M376.5,189.69a5.57,5.57,0,1,0,5.57,5.56A5.56,5.56,0,0,0,376.5,189.69Zm-4.17,5.7c-.21.42-.39.52-.59.52a4.58,4.58,0,0,1-.46,0s-.76-2.33,1.64-4.63c0,0-.11.7.38.66.67,0,1.18-.21,1.15.39s-.31.86-.24,1,.94-.38.9.1a1.94,1.94,0,0,1-.1.63s.73.56.07.38-.53-.35-.8-.28-.11.77-.42.91-.11.66-.59.45S372.54,195,372.33,195.39Zm.69,3.86s.18-.41.53-.41c.55,0,.1-1.19.45-1.12a3.75,3.75,0,0,0,1-.1c.21,0,.63-.28,1,.24s.35.77.7.77.31-.52.62-.11a1.92,1.92,0,0,1,.35,1c0,.21.28.1.42.1s.52.42.52.42A4.88,4.88,0,0,1,373,199.25Zm4.07-1.77c0-.19.63-.59.77-.45s.38.34.24.62-.21.39-.34.39A1.56,1.56,0,0,1,377.09,197.48Zm3.83-1.6c-.28-.14-.1-.21-.83-.63s-1,.45-1,.45-.59-.59-.63-.9-.28-.24-.66-.24-.63.1-.7-.07.21-.59.32-.59.24.07.87.24.83-.21,1.08-.28.27-.52.1-.66-.56-.07-.59-.28.45-.38.62-.62-.55-.74-.06-1.22,1.47.95,1.53,1a5,5,0,0,1,.76,3.72A1.33,1.33,0,0,1,380.92,195.88Z" style="fill:#6FD08C;opacity:0.30000000000000004;isolation:isolate"></path></g></g></svg>