<svg xmlns="http://www.w3.org/2000/svg" viewBox="0 0 750 500"><g id="freepik--background-complete--inject-4"><rect x="72.63" y="66.08" width="26.48" height="11.19" transform="translate(171.74 143.34) rotate(180)" style="fill:#ebebeb"></rect><path d="M87.4,52l13.12-.28,6.67-.11c2.22,0,4.46,0,6.69-.06h.44V52l0,11.19v.5h-.5l-13.24-.07c-4.41,0-8.83-.11-13.24-.16h-.28v-.27c0-1.9.08-3.79.13-5.66Zm0,0,.14,5.65c0,1.86.11,3.71.13,5.54l-.27-.28c4.41-.05,8.83-.15,13.24-.16l13.24-.06-.5.5L113.43,52l.45.44c-2.18,0-4.36,0-6.55,0l-6.57-.11Z" style="fill:#ebebeb"></path><path d="M57.86,52,71,51.69l6.66-.11c2.23,0,4.47,0,6.7-.06h.44V52l.06,11.19v.5h-.5L71.1,63.59c-4.42,0-8.83-.11-13.24-.16h-.28v-.27c0-1.9.09-3.79.13-5.66Zm0,0L58,57.62c0,1.86.11,3.71.13,5.54l-.27-.28c4.41-.05,8.82-.15,13.24-.16l13.24-.06-.5.5,0-11.19.45.44c-2.19,0-4.36,0-6.55,0l-6.58-.11Z" style="fill:#ebebeb"></path><path d="M623.36,146.39l13.12-.28,6.66-.11c2.23-.05,4.47,0,6.7-.05h.44v.45l.06,11.19v.5h-.5L636.6,158c-4.41,0-8.83-.12-13.24-.17h-.28v-.27c0-1.9.08-3.79.13-5.65Zm0,0,.14,5.65c0,1.87.11,3.71.13,5.54l-.27-.27c4.41-.05,8.83-.16,13.24-.17l13.24-.06-.5.5,0-11.19.45.45c-2.18,0-4.36,0-6.55-.06l-6.58-.11Z" style="fill:#ebebeb"></path><rect x="638.13" y="132.28" width="26.48" height="11.19" transform="translate(1302.74 275.75) rotate(180)" style="fill:#ebebeb"></rect><path d="M384.07,255.06l13.13-.28,6.66-.11c2.22,0,4.46,0,6.69-.06H411v.45l.05,11.19v.5h-.51l-13.24-.07c-4.41,0-8.82-.11-13.24-.16h-.27v-.27c0-1.9.09-3.79.13-5.66Zm0,0,.14,5.65c.05,1.86.12,3.71.14,5.54l-.28-.28c4.42-.05,8.83-.15,13.24-.16l13.24-.06-.5.5.06-11.19.44.44c-2.18,0-4.35,0-6.54-.05l-6.58-.11Z" style="fill:#ebebeb"></path><rect x="398.84" y="240.95" width="26.48" height="11.19" transform="translate(824.17 493.09) rotate(180)" style="fill:#ebebeb"></rect><path d="M608.59,132.28l13.12-.28,6.66-.11c2.23,0,4.47,0,6.7,0h.44v.45l.06,11.19v.5h-.5l-13.24-.06c-4.42,0-8.83-.11-13.24-.17h-.28v-.27c0-1.9.09-3.79.13-5.65Zm0,0,.14,5.66c0,1.86.11,3.7.13,5.53l-.27-.27c4.41,0,8.82-.16,13.24-.17l13.24-.06-.5.5,0-11.19.45.45c-2.18,0-4.36,0-6.55-.06l-6.58-.11Z" style="fill:#ebebeb"></path><path d="M653.62,52l13.13-.28,6.66-.11c2.22,0,4.46,0,6.69-.06h.45V52l.05,11.19v.5h-.5l-13.24-.07c-4.41,0-8.83-.11-13.24-.16h-.27v-.27c0-1.9.08-3.79.13-5.66Zm0,0,.14,5.65c0,1.86.12,3.71.13,5.54l-.27-.28c4.41-.05,8.83-.15,13.24-.16l13.24-.06-.5.5L679.66,52l.44.44c-2.18,0-4.36,0-6.54,0L667,52.25Z" style="fill:#ebebeb"></path><path d="M287.23,133.74l13.12-.28,6.66-.11c2.23,0,4.47,0,6.7,0h.44v.45l.06,11.19v.5h-.5l-13.24-.06c-4.42,0-8.83-.11-13.24-.17H287v-.27c0-1.9.09-3.79.13-5.65Zm0,0,.14,5.66c0,1.86.11,3.7.13,5.53l-.27-.27c4.41,0,8.82-.16,13.24-.17l13.24-.06-.5.5.05-11.19.45.45c-2.19,0-4.36,0-6.55-.06l-6.58-.11Z" style="fill:#ebebeb"></path><path d="M74.16,396.63l13.12-.28,6.67-.11c2.22-.05,4.46,0,6.69-.06h.44v.45l0,11.19v.5h-.5l-13.24-.06c-4.41,0-8.83-.12-13.24-.17h-.28v-.27c0-1.9.08-3.79.13-5.65Zm0,0,.14,5.65c0,1.87.11,3.71.13,5.54l-.27-.27c4.41-.05,8.83-.16,13.24-.17l13.24-.06-.5.5,0-11.19.45.45c-2.18,0-4.36,0-6.55-.06l-6.57-.11Z" style="fill:#ebebeb"></path><rect x="59.39" y="382.52" width="26.48" height="11.19" transform="translate(145.26 776.23) rotate(180)" style="fill:#ebebeb"></rect><rect x="665.66" y="396.62" width="26.48" height="11.19" transform="translate(1357.81 804.43) rotate(180)" style="fill:#ebebeb"></rect><rect x="80.94" y="238.87" width="84.21" height="86.83" style="fill:#ebebeb"></rect><rect x="165.15" y="238.87" width="43.48" height="86.83" style="fill:#dbdbdb"></rect><path d="M205.64,320.16q-4.83-9.26-9.58-18.58l-9.43-18.68-9.31-18.75q-4.63-9.39-9.17-18.85,4.83,9.25,9.57,18.58l9.43,18.67,9.31,18.76Q201.1,310.7,205.64,320.16Z" style="fill:#ebebeb"></path><path d="M205.64,245.3q-4.54,9.45-9.18,18.85l-9.31,18.75-9.43,18.68q-4.74,9.33-9.57,18.58,4.53-9.45,9.17-18.85l9.31-18.76,9.43-18.67Q200.8,254.55,205.64,245.3Z" style="fill:#ebebeb"></path><rect x="150.26" y="310.96" width="9.35" height="9.35" style="fill:#fff"></rect><rect x="75.41" y="184.86" width="84.21" height="54.01" style="fill:#dbdbdb"></rect><rect x="159.62" y="184.86" width="43.48" height="54.01" style="fill:#c7c7c7"></rect><polygon points="124.66 205.02 122.88 205.02 121.54 205.02 120.78 203.46 119.71 205.02 118.25 201.82 116.87 205.02 112.93 205.02 111.13 205.02 110.48 202.88 109.87 205.02 108.7 205.02 108.7 184.86 124.66 184.86 124.66 205.02" style="fill:#fff"></polygon><path d="M200.11,235.66q-4.83-5.9-9.57-11.81L181.1,212l-9.31-11.92q-4.64-6-9.17-12,4.83,5.88,9.57,11.81l9.43,11.87,9.32,11.92Q195.56,229.65,200.11,235.66Z" style="fill:#dbdbdb"></path><path d="M200.11,188.08q-4.55,6-9.17,12L181.62,212l-9.43,11.87q-4.74,5.93-9.57,11.81,4.55-6,9.17-12l9.31-11.92,9.44-11.87Q195.27,194,200.11,188.08Z" style="fill:#dbdbdb"></path><rect x="69.75" y="325.7" width="100.33" height="97.19" style="fill:#dbdbdb"></rect><rect x="170.08" y="325.7" width="51.81" height="97.2" style="fill:#c7c7c7"></rect><polygon points="128.43 349.71 126.31 349.71 124.71 349.71 123.8 347.87 122.52 349.71 120.79 345.91 119.15 349.71 114.45 349.71 112.31 349.71 111.53 347.18 110.81 349.71 109.41 349.71 109.41 325.7 128.43 325.7 128.43 349.71" style="fill:#fff"></polygon><path d="M218.32,417.12q-5.74-10.59-11.4-21.26L195.68,374.5l-11.1-21.45q-5.52-10.74-10.93-21.56,5.76,10.59,11.41,21.25L196.3,374.1l11.09,21.46Q212.91,406.3,218.32,417.12Z" style="fill:#dbdbdb"></path><path d="M218.32,331.49q-5.41,10.81-10.93,21.56L196.3,374.5l-11.24,21.37q-5.64,10.65-11.41,21.25,5.41-10.81,10.93-21.56l11.1-21.46,11.24-21.36Q212.56,342.08,218.32,331.49Z" style="fill:#dbdbdb"></path><rect x="84.82" y="410.57" width="0.48" height="6.72" transform="translate(170.12 827.86) rotate(180)" style="fill:#fff"></rect><rect x="83.68" y="410.57" width="0.48" height="6.72" transform="translate(167.83 827.86) rotate(180)" style="fill:#fff"></rect><rect x="82.53" y="410.57" width="0.48" height="6.72" transform="translate(165.54 827.86) rotate(180)" style="fill:#fff"></rect><rect x="81.39" y="410.57" width="0.48" height="6.72" transform="translate(163.26 827.86) rotate(180)" style="fill:#fff"></rect><rect x="80.25" y="410.57" width="0.48" height="6.72" transform="translate(160.97 827.86) rotate(180)" style="fill:#fff"></rect><rect x="79.11" y="410.57" width="0.48" height="6.72" transform="translate(158.69 827.86) rotate(180)" style="fill:#fff"></rect><rect x="77.96" y="410.57" width="0.48" height="6.72" transform="translate(156.4 827.86) rotate(180)" style="fill:#fff"></rect><rect x="76.82" y="410.57" width="0.48" height="6.72" transform="translate(154.12 827.86) rotate(180)" style="fill:#fff"></rect><rect x="75.68" y="410.57" width="0.48" height="6.72" transform="translate(151.83 827.86) rotate(180)" style="fill:#fff"></rect><path d="M90,416.78l-1.83.51h4.3l-1.84-.52V414.3c1.32-.17,1.84-1.46,1.84-3.72h-4.3c0,2.25.52,3.55,1.83,3.72Z" style="fill:#fff"></path><polygon points="93.44 414 94.56 414 94.56 417.29 97.44 417.29 97.44 414 98.56 414 96 410.58 93.44 414" style="fill:#fff"></polygon><rect x="87.56" y="114.03" width="63.96" height="70.83" style="fill:#ebebeb"></rect><rect x="151.52" y="114.03" width="33.03" height="70.84" style="fill:#dbdbdb"></rect><path d="M182.27,180q-3.66-7.54-7.27-15.15l-7.16-15.24-7.08-15.3q-3.51-7.66-7-15.38,3.66,7.55,7.27,15.16l7.16,15.23,7.08,15.31Q178.82,172.26,182.27,180Z" style="fill:#ebebeb"></path><path d="M182.27,118.91q-3.45,7.71-7,15.38l-7.08,15.3-7.16,15.24q-3.6,7.6-7.27,15.15,3.45-7.71,7-15.38l7.08-15.3L175,134.07Q178.6,126.47,182.27,118.91Z" style="fill:#ebebeb"></path><rect x="74.68" y="425.97" width="12.76" height="11.34" style="fill:#dbdbdb"></rect><polygon points="87.44 428.47 74.68 430.01 74.68 425.97 87.44 425.97 87.44 428.47" style="fill:#c7c7c7"></polygon><rect x="141.41" y="425.97" width="12.76" height="11.34" style="fill:#dbdbdb"></rect><polygon points="154.17 428.47 141.41 430.01 141.41 425.97 154.17 425.97 154.17 428.47" style="fill:#c7c7c7"></polygon><rect x="208.14" y="425.97" width="12.76" height="11.34" style="fill:#dbdbdb"></rect><polygon points="220.9 428.47 208.14 430.01 208.14 425.97 220.9 425.97 220.9 428.47" style="fill:#c7c7c7"></polygon><rect x="67.65" y="422.9" width="160.28" height="3.07" style="fill:#dbdbdb"></rect><rect x="67.65" y="437.31" width="160.28" height="3.07" style="fill:#dbdbdb"></rect><rect x="261.57" y="329.65" width="84.21" height="93.25" style="fill:#ebebeb"></rect><rect x="345.78" y="329.65" width="43.48" height="93.25" style="fill:#dbdbdb"></rect><path d="M386.26,416.48q-4.83-9.94-9.57-20l-9.43-20.06-9.32-20.14q-4.63-10.1-9.17-20.25,4.83,9.94,9.58,20l9.43,20.06,9.31,20.14Q381.73,406.32,386.26,416.48Z" style="fill:#ebebeb"></path><path d="M386.26,336.07q-4.54,10.15-9.17,20.25l-9.31,20.14-9.43,20.06q-4.74,10-9.58,20,4.55-10.16,9.17-20.25l9.32-20.14L376.69,356Q381.43,346,386.26,336.07Z" style="fill:#ebebeb"></path><rect x="288.16" y="211.44" width="62.26" height="64.2" style="fill:#ebebeb"></rect><rect x="350.42" y="211.44" width="32.15" height="64.2" style="fill:#dbdbdb"></rect><polygon points="324.58 226.34 323.26 226.34 322.27 226.34 321.7 225.19 320.91 226.34 319.84 223.98 318.82 226.34 315.9 226.34 314.57 226.34 314.09 224.77 313.64 226.34 312.77 226.34 312.77 211.44 324.58 211.44 324.58 226.34" style="fill:#dbdbdb"></polygon><path d="M380.36,271.55q-3.57-6.85-7.08-13.74l-7-13.81-6.89-13.87q-3.42-6.94-6.78-13.94,3.57,6.85,7.08,13.74l7,13.81,6.89,13.87Q377,264.56,380.36,271.55Z" style="fill:#ebebeb"></path><path d="M380.36,216.19q-3.36,7-6.78,13.94L366.69,244l-7,13.81q-3.51,6.88-7.08,13.74,3.36-7,6.78-13.94l6.89-13.87,7-13.81Q376.79,223,380.36,216.19Z" style="fill:#ebebeb"></path><rect x="339.41" y="264.74" width="6.91" height="6.91" style="fill:#fff"></rect><rect x="298.82" y="267.15" width="0.35" height="4.97" transform="translate(598 539.26) rotate(180)" style="fill:#fff"></rect><rect x="297.98" y="267.15" width="0.35" height="4.97" transform="translate(596.31 539.26) rotate(180)" style="fill:#fff"></rect><rect x="297.13" y="267.15" width="0.35" height="4.97" transform="translate(594.62 539.26) rotate(180)" style="fill:#fff"></rect><rect x="296.29" y="267.15" width="0.35" height="4.97" transform="translate(592.93 539.26) rotate(180)" style="fill:#fff"></rect><rect x="295.44" y="267.15" width="0.35" height="4.97" transform="translate(591.24 539.26) rotate(180)" style="fill:#fff"></rect><rect x="294.6" y="267.15" width="0.35" height="4.97" transform="translate(589.55 539.26) rotate(180)" style="fill:#fff"></rect><rect x="293.75" y="267.15" width="0.35" height="4.97" transform="translate(587.86 539.26) rotate(180)" style="fill:#fff"></rect><rect x="292.91" y="267.15" width="0.35" height="4.97" transform="translate(586.17 539.26) rotate(180)" style="fill:#fff"></rect><rect x="292.06" y="267.15" width="0.35" height="4.97" transform="translate(584.48 539.26) rotate(180)" style="fill:#fff"></rect><path d="M302.63,271.73l-1.36.38h3.18l-1.35-.38v-1.82c1-.13,1.35-1.09,1.35-2.76h-3.18c0,1.67.39,2.63,1.36,2.76Z" style="fill:#fff"></path><polygon points="305.19 269.68 306.02 269.68 306.02 272.11 308.15 272.11 308.15 269.68 308.99 269.68 307.09 267.15 305.19 269.68" style="fill:#fff"></polygon><rect x="267.18" y="275.64" width="84.21" height="54" style="fill:#dbdbdb"></rect><rect x="351.39" y="275.64" width="43.48" height="54.01" style="fill:#c7c7c7"></rect><polygon points="316.43 295.79 314.65 295.79 313.31 295.79 312.54 294.24 311.47 295.79 310.02 292.6 308.64 295.79 304.7 295.79 302.9 295.79 302.25 293.66 301.64 295.79 300.47 295.79 300.47 275.64 316.43 275.64 316.43 295.79" style="fill:#fff"></polygon><path d="M391.87,326.44q-4.83-5.9-9.57-11.81l-9.43-11.87-9.32-11.92q-4.62-6-9.17-12,4.83,5.88,9.58,11.8l9.43,11.87,9.31,11.92Q387.34,320.42,391.87,326.44Z" style="fill:#dbdbdb"></path><path d="M391.87,278.86q-4.53,6-9.17,12l-9.31,11.92L364,314.63q-4.74,5.92-9.58,11.81,4.55-6,9.17-12l9.32-11.92,9.43-11.87Q387,284.73,391.87,278.86Z" style="fill:#dbdbdb"></path><rect x="259.52" y="425.97" width="12.76" height="11.34" style="fill:#dbdbdb"></rect><polygon points="272.29 428.47 259.52 430.01 259.52 425.97 272.29 425.97 272.29 428.47" style="fill:#c7c7c7"></polygon><rect x="326.25" y="425.97" width="12.76" height="11.34" style="fill:#dbdbdb"></rect><polygon points="339.02 428.47 326.25 430.01 326.25 425.97 339.02 425.97 339.02 428.47" style="fill:#c7c7c7"></polygon><rect x="392.98" y="425.97" width="12.76" height="11.34" style="fill:#dbdbdb"></rect><polygon points="405.75 428.47 392.98 430.01 392.98 425.97 405.75 425.97 405.75 428.47" style="fill:#c7c7c7"></polygon><rect x="252.49" y="422.9" width="160.28" height="3.07" style="fill:#dbdbdb"></rect><rect x="252.49" y="437.31" width="160.28" height="3.07" style="fill:#dbdbdb"></rect><rect x="435.92" y="87.23" width="32.9" height="353.16" style="fill:#c7c7c7"></rect><rect x="650.35" y="87.23" width="32.9" height="353.16" style="fill:#ebebeb"></rect><rect x="449.42" y="121.87" width="200.93" height="11.86" style="fill:#dbdbdb"></rect><rect x="449.42" y="198.53" width="200.93" height="11.86" style="fill:#dbdbdb"></rect><rect x="449.42" y="275.2" width="200.93" height="11.86" style="fill:#dbdbdb"></rect><rect x="449.42" y="351.86" width="200.93" height="11.86" style="fill:#dbdbdb"></rect><rect x="449.42" y="428.53" width="200.93" height="11.86" style="fill:#dbdbdb"></rect><rect x="472.68" y="134.32" width="62.27" height="64.21" style="fill:#ebebeb"></rect><rect x="534.95" y="134.32" width="32.15" height="64.21" style="fill:#dbdbdb"></rect><polygon points="509.1 149.22 507.78 149.22 506.79 149.22 506.23 148.08 505.44 149.22 504.36 146.86 503.34 149.22 500.43 149.22 499.1 149.22 498.61 147.65 498.16 149.22 497.3 149.22 497.3 134.32 509.1 134.32 509.1 149.22" style="fill:#dbdbdb"></polygon><path d="M564.89,194.43q-3.57-6.84-7.08-13.74l-7-13.81L544,153q-3.44-6.94-6.78-13.94,3.57,6.85,7.08,13.74l7,13.81,6.89,13.87Q561.53,187.44,564.89,194.43Z" style="fill:#ebebeb"></path><path d="M564.89,139.07q-3.36,7-6.78,13.94l-6.89,13.87-7,13.81q-3.51,6.9-7.08,13.74,3.36-7,6.78-13.94l6.89-13.87,7-13.81Q561.32,145.93,564.89,139.07Z" style="fill:#ebebeb"></path><rect x="523.94" y="187.63" width="6.91" height="6.91" style="fill:#fff"></rect><rect x="511.9" y="235.26" width="62.27" height="39.94" style="fill:#dbdbdb"></rect><rect x="574.17" y="235.26" width="32.15" height="39.94" style="fill:#c7c7c7"></rect><polygon points="548.31 250.16 547 250.16 546.01 250.16 545.44 249.01 544.65 250.16 543.57 247.8 542.55 250.16 539.64 250.16 538.31 250.16 537.83 248.59 537.38 250.16 536.51 250.16 536.51 235.26 548.31 235.26 548.31 250.16" style="fill:#fff"></polygon><path d="M604.1,272.82q-3.57-4.35-7.08-8.73l-7-8.78-6.89-8.81q-3.42-4.42-6.78-8.86,3.57,4.35,7.08,8.73l7,8.78,6.89,8.81C599.61,266.9,601.86,269.86,604.1,272.82Z" style="fill:#dbdbdb"></path><path d="M604.1,237.64c-2.24,3-4.49,5.91-6.78,8.85l-6.89,8.82-7,8.78q-3.51,4.38-7.08,8.73,3.36-4.44,6.78-8.86l6.89-8.81,7-8.78Q600.53,242,604.1,237.64Z" style="fill:#dbdbdb"></path></g><g id="freepik--Floor--inject-4"><polygon points="49.21 440.39 130.66 440.14 212.1 440.06 375 439.89 537.9 440.06 619.35 440.14 700.79 440.39 619.35 440.63 537.9 440.72 375 440.89 212.1 440.72 130.66 440.63 49.21 440.39" style="fill:#263238"></polygon></g><g id="freepik--Forklift--inject-4"><rect x="454.5" y="84.41" width="18.89" height="327.52" style="fill:#37474f"></rect><rect x="462.73" y="96.81" width="2.44" height="302.72" style="fill:#263238"></rect><polygon points="436.98 155.49 454.5 160.46 454.5 84.41 436.98 89.38 436.98 155.49" style="fill:#263238"></polygon><polygon points="483.3 157.42 473.39 164.88 473.39 340.32 483.3 347.78 483.3 157.42" style="fill:#263238"></polygon><polygon points="654.47 340.85 483.3 340.85 483.3 347.78 654.47 343.06 654.47 340.85" style="fill:#263238"></polygon><polygon points="436.74 416.38 94.21 416.38 94.21 327.68 179.08 327.68 247.5 327.68 260.2 327.68 409.46 327.68 436.74 352.75 436.74 416.38" style="fill:#6FD08C"></polygon><path d="M213.49,416.38H116a55,55,0,1,1,97.48,0Z" style="opacity:0.2"></path><path d="M436.74,352.74v63.64h-61.4a55,55,0,0,1,42.28-80l1.15-.12Z" style="opacity:0.2"></path><polygon points="357.26 390.99 283.55 390.99 260.2 369.94 260.2 327.68 357.26 327.68 357.26 390.99" style="opacity:0.2"></polygon><polygon points="409.46 327.68 454.5 327.68 454.5 338.56 436.74 352.74 409.46 327.68" style="fill:#37474f"></polygon><g style="opacity:0.2"><polygon points="233.81 327.68 216.7 327.68 239.65 416.37 256.75 416.37 233.81 327.68" style="fill:#fff"></polygon><polygon points="245.61 327.68 240.79 327.68 263.74 416.37 268.56 416.37 245.61 327.68" style="fill:#fff"></polygon></g><path d="M471.08,382.16l-.71-.08.79,6.69.67-.24c0-1.06-.14-2.14-.27-3.21S471.28,383.2,471.08,382.16Zm-1-1.54.63-.35a48.43,48.43,0,0,0-1.86-6.14l-.72,0Zm.75,16.35.71-.11a45.42,45.42,0,0,0,.36-6.41l-.68-.2Zm-2.69-24.64a45.67,45.67,0,0,0-2.88-5.72l-.7.17,3,6Zm.94,32.67h.71a46.59,46.59,0,0,0,1.48-6.25l-.65-.32Zm-9.33-44.89,4,5.4.46-.55a44.79,44.79,0,0,0-3.84-5.13ZM466,412.6l.69.12a46.34,46.34,0,0,0,2.54-5.88l-.57-.43Zm-12.11-58.2,4.91,4.61.36-.61a46.15,46.15,0,0,0-4.67-4.4Zm7.7,65.14.67.24a48.05,48.05,0,0,0,3.52-5.36l-.49-.51Zm-14.49-69.76,5.62,3.69.26-.67a47.62,47.62,0,0,0-5.37-3.51Zm9,75.84.61.35a48.52,48.52,0,0,0,4.4-4.67l-.39-.6Zm-16.47-79.2,6.19,2.66.14-.71a48,48,0,0,0-5.9-2.53Zm10,84.21.55.46a46,46,0,0,0,5.13-3.84l-.28-.64Zm-17.92-86.22,6.55,1.54v-.72a44.92,44.92,0,0,0-6.24-1.46Zm10.65,90,.45.55a45.8,45.8,0,0,0,5.73-2.88l-.17-.69Zm-18.64-91.31-.2.68,6.71.38-.11-.7A48.46,48.46,0,0,0,423.59,343.13Zm11.16,94.41a44.46,44.46,0,0,0,6.14-1.84l-.05-.71-6.44,1.94Zm-16.29-94.08c-1.07.13-2.12.28-3.17.49l-.08.7,6.69-.79-.24-.66C420.6,343.24,419.54,343.33,418.46,343.46Zm8,95.23c1.06-.05,2.13-.14,3.2-.27s2.14-.28,3.18-.49l.08-.69-6.69.79Zm-19.23-92.51.05.71,6.45-1.94-.35-.61A45,45,0,0,0,407.26,346.18Zm10.91,92.21a46.81,46.81,0,0,0,6.4.36l.2-.68-6.73-.38Zm-18.42-88.61.16.69,6-3-.46-.56A46.28,46.28,0,0,0,399.75,349.78ZM410,436.64a45,45,0,0,0,6.24,1.48l.31-.64L410,435.94Zm-17-82,.28.65,5.4-4-.54-.47A46.5,46.5,0,0,0,393,354.64Zm9.32,78.86a46,46,0,0,0,5.9,2.54l.42-.58-6.19-2.65Zm-15.15-72.91.39.59,4.62-4.9-.61-.36A46.28,46.28,0,0,0,387.14,360.59Zm8.1,68.48a46.36,46.36,0,0,0,5.37,3.52l.5-.48-5.63-3.7Zm-12.81-61.6.49.51,3.69-5.63-.66-.24A46.24,46.24,0,0,0,382.43,367.47Zm6.63,56a45.22,45.22,0,0,0,4.68,4.4l.57-.39-4.9-4.61ZM379,375.05l.57.42,2.66-6.19-.69-.12A45.86,45.86,0,0,0,379,375.05Zm5,41.86a47.94,47.94,0,0,0,3.83,5.14l.65-.28-4-5.4Zm-7-33.78.64.31,1.54-6.56h-.72A48.12,48.12,0,0,0,376.91,383.13ZM380,409.55a46.61,46.61,0,0,0,2.9,5.73l.68-.18-3-6Zm-2.7-24.64-.69.12a47,47,0,0,0-.37,6.41l.67.2Zm.75,16.36-.6.34a46.5,46.5,0,0,0,1.85,6.15l.69-.05ZM377,393.12l-.66.23c0,1.06.14,2.13.26,3.2s.3,2.14.5,3.19l.69.07Z" style="fill:#263238"></path><path d="M471.16,388.77l.67-.24c0,.64.06,1.28.06,1.92l-.68-.2-.39,6.72.71-.11c-.07.64-.17,1.27-.27,1.9l-.65-.32L469.07,405h.71q-.27.92-.6,1.83l-.57-.43L466,412.6l.69.12c-.28.57-.59,1.15-.91,1.7l-.49-.51-3.7,5.63.67.24c-.38.51-.79,1-1.19,1.52l-.39-.6L456,425.62l.61.35c-.46.43-.95.86-1.44,1.28l-.28-.64-5.4,4,.55.46c-.54.35-1.08.7-1.64,1l-.17-.69-6,3,.45.55c-.59.26-1.18.49-1.79.71l-.05-.71-6.44,1.94.35.61c-.62.15-1.25.27-1.88.39l.08-.69-6.69.79.23.66q-1,0-1.92.06l.2-.68-6.73-.38.13.7c-.64-.07-1.27-.16-1.91-.27l.31-.64L410,435.94v.7c-.61-.19-1.23-.38-1.83-.6l.42-.58-6.19-2.65-.13.69c-.57-.28-1.12-.59-1.68-.91l.5-.48-5.63-3.7-.24.66c-.51-.39-1-.78-1.5-1.19l.57-.39-4.9-4.61-.35.6c-.44-.47-.87-.94-1.29-1.43l.65-.28-4-5.4-.45.54c-.36-.54-.69-1.08-1-1.63l.68-.18-3-6-.55.46c-.24-.59-.49-1.18-.7-1.79l.69-.05-1.94-6.44-.6.34c-.14-.62-.27-1.24-.38-1.87l.69.07-.79-6.69-.66.23c0-.63-.06-1.27-.07-1.91l.67.2.39-6.73-.69.12c.07-.64.16-1.27.27-1.9l.64.31,1.54-6.56h-.72c.19-.61.4-1.22.61-1.83l.57.42,2.66-6.19-.69-.12c.29-.57.6-1.14.91-1.69l.49.51,3.69-5.63-.66-.24c.38-.51.78-1,1.19-1.52l.39.59,4.62-4.9-.61-.36c.46-.44.94-.86,1.43-1.28l.28.65,5.4-4-.54-.47c.53-.35,1.08-.69,1.64-1l.16.69,6-3-.46-.56c.6-.26,1.2-.49,1.8-.71l.05.71,6.45-1.94-.35-.61c.62-.15,1.25-.28,1.88-.39l-.08.7,6.69-.79-.24-.66c.65-.05,1.29-.06,1.93-.07l-.2.68,6.71.38-.11-.7c.64.07,1.27.16,1.91.28l-.32.64,6.55,1.54v-.72c.61.19,1.23.39,1.83.61l-.43.58,6.19,2.66.14-.71c.57.3,1.13.6,1.69.92l-.51.49,5.62,3.69.26-.67c.51.4,1,.79,1.51,1.2l-.6.4,4.91,4.61.36-.61c.44.46.87.94,1.28,1.43l-.65.28,4,5.4.46-.55q.54.81,1,1.65l-.7.17,3,6,.55-.46c.26.59.5,1.19.71,1.8l-.72,0,1.95,6.45.63-.35c.13.63.27,1.25.38,1.89l-.71-.08Z" style="fill:#263238"></path><polygon points="421.9 343.86 415.21 344.65 415.3 343.95 415.53 341.77 420.92 341.13 421.66 343.2 421.9 343.86" style="fill:#263238"></polygon><polygon points="413.76 344.95 407.31 346.89 407.26 346.18 407.12 344.01 412.32 342.44 413.41 344.34 413.76 344.95" style="fill:#263238"></polygon><polygon points="405.92 347.45 399.91 350.48 399.75 349.78 399.23 347.66 404.08 345.21 405.46 346.89 405.92 347.45" style="fill:#263238"></polygon><polygon points="398.65 351.25 393.25 355.29 392.96 354.64 392.09 352.63 396.44 349.39 398.11 350.79 398.65 351.25" style="fill:#263238"></polygon><polygon points="392.14 356.27 387.53 361.18 387.14 360.59 385.92 358.77 389.64 354.81 391.54 355.92 392.14 356.27" style="fill:#263238"></polygon><polygon points="386.61 362.35 382.92 367.98 382.43 367.47 380.91 365.89 383.89 361.35 385.95 362.11 386.61 362.35" style="fill:#263238"></polygon><polygon points="382.21 369.28 379.55 375.47 378.98 375.06 377.22 373.76 379.36 368.77 381.51 369.16 382.21 369.28" style="fill:#263238"></polygon><polygon points="379.09 376.88 377.55 383.44 376.91 383.13 374.94 382.16 376.19 376.87 378.38 376.88 379.09 376.88" style="fill:#263238"></polygon><polygon points="377.33 384.91 376.94 391.64 376.27 391.44 374.17 390.83 374.48 385.4 376.64 385.03 377.33 384.91" style="fill:#263238"></polygon><polygon points="377 393.12 377.79 399.81 377.1 399.74 374.9 399.49 374.27 394.11 376.34 393.35 377 393.12" style="fill:#263238"></polygon><polygon points="380.02 407.71 379.33 407.76 377.14 407.9 375.57 402.7 377.48 401.61 378.08 401.27 380.02 407.71" style="fill:#263238"></polygon><polygon points="383.61 415.11 382.93 415.28 380.79 415.8 378.35 410.95 380.03 409.55 380.58 409.09 383.61 415.11" style="fill:#263238"></polygon><polygon points="388.42 421.77 387.77 422.05 385.76 422.94 382.52 418.58 383.94 416.91 384.39 416.37 388.42 421.77" style="fill:#263238"></polygon><polygon points="394.31 427.49 393.74 427.88 391.9 429.1 387.95 425.38 389.06 423.48 389.41 422.88 394.31 427.49" style="fill:#263238"></polygon><polygon points="401.11 432.11 400.61 432.59 399.02 434.1 394.48 431.13 395.24 429.07 395.48 428.41 401.11 432.11" style="fill:#263238"></polygon><polygon points="408.61 435.46 408.19 436.04 406.9 437.81 401.9 435.65 402.29 433.5 402.42 432.81 408.61 435.46" style="fill:#263238"></polygon><polygon points="416.57 437.48 416.26 438.12 415.3 440.07 410.01 438.83 410.02 436.64 410.02 435.94 416.57 437.48" style="fill:#263238"></polygon><polygon points="424.77 438.07 424.57 438.75 423.96 440.86 418.54 440.55 418.17 438.39 418.04 437.69 424.77 438.07" style="fill:#263238"></polygon><polygon points="432.95 437.24 432.87 437.93 432.63 440.12 427.24 440.76 426.49 438.69 426.25 438.03 432.95 437.24" style="fill:#263238"></polygon><polygon points="440.84 434.99 440.89 435.7 441.04 437.88 435.84 439.45 434.75 437.54 434.4 436.93 440.84 434.99" style="fill:#263238"></polygon><polygon points="448.93 434.23 444.08 436.67 442.68 434.99 442.23 434.44 448.24 431.42 448.41 432.11 448.93 434.23" style="fill:#263238"></polygon><polygon points="456.07 429.25 451.72 432.5 450.05 431.09 449.5 430.63 454.9 426.61 455.18 427.25 456.07 429.25" style="fill:#263238"></polygon><polygon points="462.24 423.12 458.51 427.07 456.62 425.97 456.01 425.62 460.63 420.7 461.02 421.3 462.24 423.12" style="fill:#263238"></polygon><polygon points="467.24 416 464.27 420.54 462.21 419.78 461.54 419.54 465.24 413.91 465.73 414.42 467.24 416" style="fill:#263238"></polygon><polygon points="470.94 408.13 468.79 413.12 466.64 412.72 465.94 412.6 468.61 406.41 469.18 406.84 470.94 408.13" style="fill:#263238"></polygon><polygon points="473.2 399.73 471.97 405.02 469.79 405.01 469.07 405 470.61 398.44 471.26 398.76 473.2 399.73" style="fill:#263238"></polygon><polygon points="473.99 391.06 473.68 396.49 471.53 396.86 470.82 396.97 471.2 390.25 471.89 390.45 473.99 391.06" style="fill:#263238"></polygon><polygon points="473.25 382.4 473.89 387.79 471.83 388.53 471.16 388.77 470.37 382.08 471.08 382.16 473.25 382.4" style="fill:#263238"></polygon><polygon points="472.59 379.19 470.7 380.27 470.07 380.63 468.12 374.17 468.84 374.13 471.02 373.99 472.59 379.19" style="fill:#263238"></polygon><polygon points="469.8 370.94 468.13 372.33 467.58 372.79 464.55 366.78 465.25 366.61 467.37 366.09 469.8 370.94" style="fill:#263238"></polygon><polygon points="465.64 363.31 464.23 364.96 463.77 365.51 459.74 360.12 460.39 359.83 462.38 358.95 465.64 363.31" style="fill:#263238"></polygon><polygon points="460.2 356.51 459.11 358.4 458.75 359.01 453.84 354.4 454.44 354 456.26 352.79 460.2 356.51" style="fill:#263238"></polygon><polygon points="453.68 350.76 452.93 352.8 452.68 353.47 447.05 349.78 447.56 349.29 449.14 347.78 453.68 350.76" style="fill:#263238"></polygon><polygon points="446.25 346.23 445.87 348.37 445.73 349.08 439.54 346.42 439.97 345.84 441.26 344.08 446.25 346.23" style="fill:#263238"></polygon><polygon points="438.15 343.06 438.14 345.23 438.13 345.95 431.58 344.41 431.89 343.76 432.86 341.81 438.15 343.06" style="fill:#263238"></polygon><polygon points="430.11 344.19 423.39 343.81 423.59 343.13 424.2 341.04 429.62 341.35 429.99 343.49 430.11 344.19" style="fill:#263238"></polygon><path d="M462.42,386.41a38.61,38.61,0,1,1-42.88-33.81A38.61,38.61,0,0,1,462.42,386.41Z" style="fill:#37474f"></path><path d="M448.76,388a24.85,24.85,0,1,1-27.6-21.75A24.85,24.85,0,0,1,448.76,388Z" style="fill:#455a64"></path><path d="M435,389.65A11,11,0,1,1,422.79,380,11,11,0,0,1,435,389.65Z" style="fill:#263238"></path><path d="M425.76,405.17a14.33,14.33,0,1,1,12.55-15.91A14.34,14.34,0,0,1,425.76,405.17ZM422.55,378A13,13,0,1,0,437,389.41,13.06,13.06,0,0,0,422.55,378Z" style="fill:#263238"></path><path d="M424.1,371.26a2.33,2.33,0,1,1-2.59-2A2.33,2.33,0,0,1,424.1,371.26Z" style="fill:#263238"></path><path d="M414.26,373.89a2.33,2.33,0,1,1-3.27-.47A2.33,2.33,0,0,1,414.26,373.89Z" style="fill:#263238"></path><path d="M407.05,381.09a2.33,2.33,0,1,1-3.07,1.22A2.33,2.33,0,0,1,407.05,381.09Z" style="fill:#263238"></path><path d="M404.4,390.92a2.33,2.33,0,1,1-2,2.59A2.34,2.34,0,0,1,404.4,390.92Z" style="fill:#263238"></path><path d="M407,400.76a2.33,2.33,0,1,1-.47,3.27A2.34,2.34,0,0,1,407,400.76Z" style="fill:#263238"></path><path d="M414.22,408a2.33,2.33,0,1,1,1.22,3.06A2.34,2.34,0,0,1,414.22,408Z" style="fill:#263238"></path><path d="M424.06,410.62a2.33,2.33,0,1,1,2.59,2A2.33,2.33,0,0,1,424.06,410.62Z" style="fill:#263238"></path><path d="M433.9,408a2.33,2.33,0,1,1,3.26.47A2.34,2.34,0,0,1,433.9,408Z" style="fill:#263238"></path><path d="M441.11,400.8a2.33,2.33,0,1,1,3.06-1.22A2.33,2.33,0,0,1,441.11,400.8Z" style="fill:#263238"></path><path d="M443.76,391a2.33,2.33,0,1,1,2-2.59A2.32,2.32,0,0,1,443.76,391Z" style="fill:#263238"></path><path d="M441.13,381.12a2.33,2.33,0,1,1,.47-3.26A2.33,2.33,0,0,1,441.13,381.12Z" style="fill:#263238"></path><path d="M433.94,373.91a2.33,2.33,0,1,1-1.23-3.06A2.34,2.34,0,0,1,433.94,373.91Z" style="fill:#263238"></path><path d="M211.75,382.16l-.7-.08.79,6.69.66-.24c0-1.06-.13-2.14-.26-3.21S212,383.2,211.75,382.16Zm-1-1.54.63-.35a46.81,46.81,0,0,0-1.85-6.14l-.72,0ZM211.5,397l.71-.11a47,47,0,0,0,.36-6.41l-.69-.2Zm-2.69-24.64a45.67,45.67,0,0,0-2.88-5.72l-.7.17,3,6Zm.94,32.67h.71a46.59,46.59,0,0,0,1.48-6.25l-.65-.32Zm-9.34-44.89,4,5.4.46-.55a46.07,46.07,0,0,0-3.85-5.13Zm6.21,52.49.7.12a47.82,47.82,0,0,0,2.54-5.88l-.58-.43Zm-12.1-58.2,4.91,4.61.36-.61a46.15,46.15,0,0,0-4.67-4.4Zm7.7,65.14.67.24a46.61,46.61,0,0,0,3.51-5.36l-.48-.51Zm-14.5-69.76,5.63,3.69.25-.67a46.73,46.73,0,0,0-5.37-3.51Zm9,75.84.61.35a47.2,47.2,0,0,0,4.39-4.67l-.39-.6Zm-16.47-79.2,6.19,2.66.13-.71a47.25,47.25,0,0,0-5.89-2.53Zm10,84.21.55.46a46.93,46.93,0,0,0,5.13-3.84l-.28-.64Zm-17.93-86.22,6.56,1.54v-.72a45.06,45.06,0,0,0-6.25-1.46Zm10.65,90,.46.55a46.49,46.49,0,0,0,5.73-2.88l-.17-.69Zm-18.64-91.31-.2.68,6.72.38-.11-.7A48.61,48.61,0,0,0,164.26,343.13Zm11.17,94.41a45.3,45.3,0,0,0,6.14-1.84l0-.71-6.44,1.94Zm-16.29-94.08c-1.07.13-2.13.28-3.17.49l-.08.7,6.69-.79-.24-.66C161.28,343.24,160.21,343.33,159.14,343.46Zm8,95.23c1.06-.05,2.14-.14,3.21-.27s2.14-.28,3.18-.49l.07-.69-6.69.79Zm-19.22-92.51,0,.71,6.45-1.94-.35-.61A45.3,45.3,0,0,0,147.94,346.18Zm10.9,92.21a47,47,0,0,0,6.41.36l.2-.68-6.73-.38Zm-18.42-88.61.17.69,6-3-.46-.56A47.14,47.14,0,0,0,140.42,349.78Zm10.27,86.86a45.11,45.11,0,0,0,6.25,1.48l.31-.64-6.56-1.54Zm-17.05-82,.28.65,5.4-4-.54-.47A48.46,48.46,0,0,0,133.64,354.64ZM143,433.5a45.86,45.86,0,0,0,5.89,2.54l.42-.58-6.19-2.65Zm-15.15-72.91.39.59,4.61-4.9-.61-.36A45.08,45.08,0,0,0,127.82,360.59Zm8.1,68.48a45.52,45.52,0,0,0,5.37,3.52l.5-.48-5.63-3.7Zm-12.81-61.6.48.51,3.69-5.63-.66-.24A46.16,46.16,0,0,0,123.11,367.47Zm6.62,56a45.22,45.22,0,0,0,4.68,4.4l.58-.39-4.9-4.61Zm-10.08-48.43.58.42,2.66-6.19-.7-.12A47.31,47.31,0,0,0,119.65,375.05Zm5,41.86a48,48,0,0,0,3.84,5.14l.65-.28-4-5.4Zm-7-33.78.63.31,1.54-6.56h-.71A45.06,45.06,0,0,0,117.59,383.13Zm3.12,26.42a48,48,0,0,0,2.89,5.73l.68-.18-3-6ZM118,384.91l-.69.12a50.38,50.38,0,0,0-.37,6.41l.68.2Zm.76,16.36-.6.34a46.47,46.47,0,0,0,1.84,6.15l.7-.05Zm-1.09-8.15-.65.23c0,1.06.13,2.13.26,3.2s.29,2.14.49,3.19l.69.07Z" style="fill:#263238"></path><path d="M211.84,388.77l.66-.24c0,.64.06,1.28.07,1.92l-.69-.2L211.5,397l.71-.11c-.07.64-.17,1.27-.27,1.9l-.65-.32L209.75,405h.71c-.19.61-.38,1.22-.6,1.83l-.58-.43-2.66,6.19.7.12c-.29.57-.59,1.15-.92,1.7l-.48-.51-3.7,5.63.67.24c-.39.51-.79,1-1.2,1.52l-.39-.6-4.61,4.92.61.35c-.46.43-1,.86-1.44,1.28l-.28-.64-5.4,4,.55.46c-.54.35-1.09.7-1.64,1l-.17-.69-6,3,.46.55c-.59.26-1.18.49-1.79.71l0-.71-6.44,1.94.35.61c-.63.15-1.25.27-1.88.39l.07-.69-6.69.79.23.66c-.63,0-1.27.05-1.91.06l.2-.68-6.73-.38.12.7c-.64-.07-1.27-.16-1.9-.27l.31-.64-6.56-1.54v.7c-.61-.19-1.22-.38-1.83-.6l.42-.58-6.19-2.65-.12.69c-.57-.28-1.13-.59-1.68-.91l.5-.48-5.63-3.7-.24.66c-.51-.39-1-.78-1.51-1.19l.58-.39-4.9-4.61-.36.6c-.44-.47-.86-.94-1.28-1.43l.65-.28-4-5.4-.45.54c-.35-.54-.68-1.08-1-1.63l.68-.18-3-6-.55.46c-.25-.59-.49-1.18-.71-1.79l.7-.05-1.94-6.44-.6.34c-.15-.62-.27-1.24-.39-1.87l.69.07-.79-6.69-.65.23c0-.63-.06-1.27-.08-1.91l.68.2.38-6.73-.69.12c.07-.64.16-1.27.28-1.9l.63.31,1.54-6.56h-.71q.28-.92.6-1.83l.58.42,2.66-6.19-.7-.12c.3-.57.6-1.14.92-1.69l.48.51,3.69-5.63-.66-.24c.39-.51.78-1,1.2-1.52l.39.59,4.61-4.9-.61-.36c.47-.44.94-.86,1.43-1.28l.28.65,5.4-4-.54-.47c.54-.35,1.09-.69,1.64-1l.17.69,6-3-.46-.56c.59-.26,1.19-.49,1.8-.71l0,.71,6.45-1.94-.35-.61c.63-.15,1.25-.28,1.89-.39l-.08.7,6.69-.79-.24-.66c.64-.05,1.28-.06,1.92-.07l-.2.68,6.72.38-.11-.7c.64.07,1.27.16,1.9.28l-.32.64,6.56,1.54v-.72c.61.19,1.22.39,1.83.61l-.43.58,6.19,2.66.13-.71c.57.3,1.14.6,1.69.92l-.51.49,5.63,3.69.25-.67c.51.4,1,.79,1.52,1.2l-.6.4,4.91,4.61.36-.61c.44.46.86.94,1.27,1.43l-.65.28,4,5.4.46-.55c.35.54.7,1.09,1,1.65l-.7.17,3,6,.56-.46c.26.59.49,1.19.71,1.8l-.72,0,1.94,6.45.63-.35c.14.63.28,1.25.38,1.89l-.7-.08Z" style="fill:#263238"></path><polygon points="162.58 343.86 155.89 344.65 155.97 343.95 156.21 341.77 161.59 341.13 162.34 343.2 162.58 343.86" style="fill:#263238"></polygon><polygon points="154.43 344.95 147.98 346.89 147.94 346.18 147.8 344.01 153 342.44 154.08 344.34 154.43 344.95" style="fill:#263238"></polygon><polygon points="146.6 347.45 140.59 350.48 140.42 349.78 139.9 347.66 144.75 345.21 146.14 346.89 146.6 347.45" style="fill:#263238"></polygon><polygon points="139.32 351.25 133.93 355.29 133.64 354.64 132.76 352.63 137.12 349.39 138.78 350.79 139.32 351.25" style="fill:#263238"></polygon><polygon points="132.82 356.27 128.21 361.18 127.82 360.59 126.6 358.77 130.32 354.81 132.21 355.92 132.82 356.27" style="fill:#263238"></polygon><polygon points="127.28 362.35 123.59 367.98 123.11 367.47 121.59 365.89 124.57 361.35 126.62 362.11 127.28 362.35" style="fill:#263238"></polygon><polygon points="122.89 369.28 120.23 375.47 119.65 375.06 117.89 373.76 120.04 368.77 122.19 369.16 122.89 369.28" style="fill:#263238"></polygon><polygon points="119.76 376.88 118.22 383.44 117.59 383.13 115.62 382.16 116.87 376.87 119.05 376.88 119.76 376.88" style="fill:#263238"></polygon><polygon points="118 384.91 117.62 391.64 116.94 391.44 114.84 390.83 115.16 385.4 117.31 385.03 118 384.91" style="fill:#263238"></polygon><polygon points="117.67 393.12 118.46 399.81 117.77 399.74 115.58 399.49 114.94 394.11 117.02 393.35 117.67 393.12" style="fill:#263238"></polygon><polygon points="120.7 407.71 120 407.76 117.82 407.9 116.25 402.7 118.16 401.61 118.76 401.27 120.7 407.71" style="fill:#263238"></polygon><polygon points="124.28 415.11 123.6 415.28 121.47 415.8 119.02 410.95 120.71 409.55 121.26 409.09 124.28 415.11" style="fill:#263238"></polygon><polygon points="129.09 421.77 128.45 422.05 126.44 422.94 123.2 418.58 124.61 416.91 125.06 416.37 129.09 421.77" style="fill:#263238"></polygon><polygon points="134.99 427.49 134.41 427.88 132.58 429.1 128.62 425.38 129.73 423.48 130.09 422.88 134.99 427.49" style="fill:#263238"></polygon><polygon points="141.79 432.11 141.29 432.59 139.7 434.1 135.16 431.13 135.92 429.07 136.16 428.41 141.79 432.11" style="fill:#263238"></polygon><polygon points="149.28 435.46 148.86 436.04 147.57 437.81 142.58 435.65 142.97 433.5 143.09 432.81 149.28 435.46" style="fill:#263238"></polygon><polygon points="157.25 437.48 156.94 438.12 155.97 440.07 150.68 438.83 150.69 436.64 150.69 435.94 157.25 437.48" style="fill:#263238"></polygon><polygon points="165.45 438.07 165.25 438.75 164.64 440.86 159.21 440.55 158.84 438.39 158.72 437.69 165.45 438.07" style="fill:#263238"></polygon><polygon points="173.62 437.24 173.55 437.93 173.3 440.12 167.92 440.76 167.16 438.69 166.93 438.03 173.62 437.24" style="fill:#263238"></polygon><polygon points="181.52 434.99 181.57 435.7 181.72 437.88 176.51 439.45 175.43 437.54 175.08 436.93 181.52 434.99" style="fill:#263238"></polygon><polygon points="189.61 434.23 184.76 436.67 183.36 434.99 182.9 434.44 188.91 431.42 189.09 432.11 189.61 434.23" style="fill:#263238"></polygon><polygon points="196.75 429.25 192.4 432.5 190.73 431.09 190.18 430.63 195.58 426.61 195.86 427.25 196.75 429.25" style="fill:#263238"></polygon><polygon points="202.91 423.12 199.19 427.07 197.3 425.97 196.69 425.62 201.3 420.7 201.69 421.3 202.91 423.12" style="fill:#263238"></polygon><polygon points="207.91 416 204.94 420.54 202.89 419.78 202.22 419.54 205.92 413.91 206.4 414.42 207.91 416" style="fill:#263238"></polygon><polygon points="211.62 408.13 209.47 413.12 207.32 412.72 206.62 412.6 209.28 406.41 209.86 406.84 211.62 408.13" style="fill:#263238"></polygon><polygon points="213.88 399.73 212.64 405.02 210.46 405.01 209.75 405 211.29 398.44 211.94 398.76 213.88 399.73" style="fill:#263238"></polygon><polygon points="214.67 391.06 214.36 396.49 212.21 396.86 211.5 396.97 211.88 390.25 212.57 390.45 214.67 391.06" style="fill:#263238"></polygon><polygon points="213.93 382.4 214.57 387.79 212.5 388.53 211.84 388.77 211.05 382.08 211.75 382.16 213.93 382.4" style="fill:#263238"></polygon><polygon points="213.26 379.19 211.37 380.27 210.74 380.63 208.8 374.17 209.52 374.13 211.69 373.99 213.26 379.19" style="fill:#263238"></polygon><polygon points="210.48 370.94 208.81 372.33 208.25 372.79 205.23 366.78 205.93 366.61 208.04 366.09 210.48 370.94" style="fill:#263238"></polygon><polygon points="206.31 363.31 204.91 364.96 204.45 365.51 200.41 360.12 201.06 359.83 203.06 358.95 206.31 363.31" style="fill:#263238"></polygon><polygon points="200.88 356.51 199.79 358.4 199.43 359.01 194.51 354.4 195.12 354 196.93 352.79 200.88 356.51" style="fill:#263238"></polygon><polygon points="194.35 350.76 193.6 352.8 193.35 353.47 187.72 349.78 188.23 349.29 189.81 347.78 194.35 350.76" style="fill:#263238"></polygon><polygon points="186.93 346.23 186.54 348.37 186.41 349.08 180.22 346.42 180.65 345.84 181.94 344.08 186.93 346.23" style="fill:#263238"></polygon><polygon points="178.83 343.06 178.82 345.23 178.81 345.95 172.25 344.41 172.57 343.76 173.54 341.81 178.83 343.06" style="fill:#263238"></polygon><polygon points="170.78 344.19 164.06 343.81 164.26 343.13 164.87 341.04 170.3 341.35 170.67 343.49 170.78 344.19" style="fill:#263238"></polygon><path d="M203.09,386.41a38.61,38.61,0,1,1-42.87-33.81A38.6,38.6,0,0,1,203.09,386.41Z" style="fill:#37474f"></path><path d="M189.43,388a24.85,24.85,0,1,1-27.59-21.75A24.85,24.85,0,0,1,189.43,388Z" style="fill:#455a64"></path><path d="M175.68,389.65A11,11,0,1,1,163.46,380,11,11,0,0,1,175.68,389.65Z" style="fill:#263238"></path><path d="M166.44,405.17A14.33,14.33,0,1,1,179,389.26,14.35,14.35,0,0,1,166.44,405.17ZM163.22,378a13,13,0,1,0,14.49,11.42A13,13,0,0,0,163.22,378Z" style="fill:#263238"></path><path d="M164.77,371.26a2.33,2.33,0,1,1-2.59-2A2.32,2.32,0,0,1,164.77,371.26Z" style="fill:#263238"></path><path d="M154.93,373.89a2.33,2.33,0,1,1-3.26-.47A2.33,2.33,0,0,1,154.93,373.89Z" style="fill:#263238"></path><path d="M147.72,381.09a2.33,2.33,0,1,1-3.06,1.22A2.33,2.33,0,0,1,147.72,381.09Z" style="fill:#263238"></path><path d="M145.07,390.92a2.33,2.33,0,1,1-2,2.59A2.34,2.34,0,0,1,145.07,390.92Z" style="fill:#263238"></path><path d="M147.7,400.76a2.33,2.33,0,1,1-.47,3.27A2.33,2.33,0,0,1,147.7,400.76Z" style="fill:#263238"></path><path d="M154.9,408a2.33,2.33,0,1,1,1.22,3.06A2.33,2.33,0,0,1,154.9,408Z" style="fill:#263238"></path><path d="M164.73,410.62a2.33,2.33,0,1,1,2.59,2A2.34,2.34,0,0,1,164.73,410.62Z" style="fill:#263238"></path><path d="M174.57,408a2.33,2.33,0,1,1,3.27.47A2.34,2.34,0,0,1,174.57,408Z" style="fill:#263238"></path><path d="M181.79,400.8a2.33,2.33,0,1,1,3.06-1.22A2.34,2.34,0,0,1,181.79,400.8Z" style="fill:#263238"></path><path d="M184.43,391a2.33,2.33,0,1,1-.54-4.63,2.33,2.33,0,1,1,.54,4.63Z" style="fill:#263238"></path><path d="M181.81,381.12a2.33,2.33,0,1,1,.47-3.26A2.34,2.34,0,0,1,181.81,381.12Z" style="fill:#263238"></path><path d="M174.61,373.91a2.33,2.33,0,1,1-1.22-3.06A2.33,2.33,0,0,1,174.61,373.91Z" style="fill:#263238"></path><path d="M224.1,391h-6.21a53.14,53.14,0,0,0-106.27,0h-6.21a59.35,59.35,0,0,1,118.69,0Z" style="fill:#6FD08C"></path><path d="M224.1,391h-6.21a53.14,53.14,0,0,0-106.27,0h-6.21a59.35,59.35,0,0,1,118.69,0Z" style="fill:#fff;opacity:0.2"></path><path d="M371,391h-6.22a59.42,59.42,0,0,1,59.35-59.34v6.21A53.19,53.19,0,0,0,371,391Z" style="fill:#6FD08C"></path><path d="M371,391h-6.22a59.42,59.42,0,0,1,59.35-59.34v6.21A53.19,53.19,0,0,0,371,391Z" style="fill:#fff;opacity:0.2"></path><polygon points="179.34 311.01 101.79 311.01 94.21 327.68 179.34 327.68 179.34 311.01" style="fill:#6FD08C"></polygon><polygon points="179.34 311.01 101.79 311.01 94.21 327.68 179.34 327.68 179.34 311.01" style="opacity:0.1"></polygon><rect x="101.79" y="254.39" width="77.55" height="56.61" style="fill:#6FD08C"></rect><g style="opacity:0.1"><rect x="139.39" y="260.25" width="33" height="3.31"></rect><rect x="139.39" y="267.27" width="33" height="3.31"></rect><rect x="139.39" y="274.3" width="33" height="3.31"></rect><rect x="139.39" y="281.32" width="33" height="3.31"></rect><rect x="139.39" y="288.35" width="33" height="3.31"></rect></g><polygon points="384.37 152.57 356.18 152.57 356.18 150.46 383.49 150.46 387.99 145.96 387.99 103.96 366.42 103.96 343.84 118.77 342.68 117.01 365.79 101.85 390.1 101.85 390.1 146.84 384.37 152.57" style="fill:#263238"></polygon><rect x="368.07" y="106.86" width="16.53" height="38.56" style="fill:#263238"></rect><rect x="384.6" y="138.09" width="4.44" height="2.11" style="fill:#263238"></rect><rect x="384.6" y="114.22" width="4.44" height="2.11" style="fill:#263238"></rect><rect x="299.45" y="199.6" width="59.51" height="7.85" transform="translate(-47.49 292.39) rotate(-45)" style="fill:#263238"></rect><polygon points="346.33 213.43 338.91 220.85 326.28 212 337.24 201.04 346.33 213.43" style="fill:#37474f"></polygon><rect x="350.57" y="212.8" width="4.75" height="28.94" transform="translate(-57.33 316.14) rotate(-45)" style="fill:#263238"></rect><polygon points="392.73 327.68 371.17 224.23 321.57 78.64 180.58 78.64 179.34 254.39 165.1 254.39 173.13 71.18 326.55 71.18 383.5 220.31 409.46 327.68 392.73 327.68" style="fill:#37474f"></polygon><polygon points="371.17 224.23 352.57 248.26 352.57 278.84 333.15 327.68 392.73 327.68 371.17 224.23" style="fill:#263238"></polygon><polygon points="285.48 327.68 179.34 327.68 179.34 253.75 260 253.75 285.48 327.68" style="fill:#37474f"></polygon><rect x="191.95" y="237.49" width="84.34" height="16.27" style="fill:#263238"></rect><polygon points="180.41 161.42 191.95 237.49 215.1 237.49 195.35 157.55 180.41 161.42" style="fill:#263238"></polygon></g><g id="freepik--Character--inject-4"><path d="M248.76,122.4c-3.06-1.33-11.73-.66-15.31,3.07s-4.7,10.68-3.42,11.63,7.48,1.62,12.1.13S250.27,123.05,248.76,122.4Z" style="fill:#263238"></path><path d="M248.77,122.42c.11,0,.16-.18,0-.21-2.78-.61-6-.26-8.78,0a16.41,16.41,0,0,0-6.65,1.63,7.63,7.63,0,0,0-3.84,5.13,15.78,15.78,0,0,0,0,7.93c0,.07.15.07.15,0-.38-4.91-.4-10.82,4.86-13.1C239,121.85,244.07,122.51,248.77,122.42Z" style="fill:#263238"></path><path d="M230.73,136c-2.87-.18-11.17,3.72-13.43,8.8s.52,13.78,1.78,14.62,8.43-3.06,11.18-6.41c1.83-2.23,1.34-5.36,1.3-8.38C231.49,140.14,231.18,136,230.73,136Z" style="fill:#263238"></path><path d="M232.07,152.64c1.89-5.25-.13-11.22-1-16.47a.05.05,0,0,0-.1,0c.1,4.89,2.1,9.66,1.22,14.59a9.13,9.13,0,0,1-4.85,6.9c-2.38,1.14-5.13,1.34-7.71,1.72-.17,0-.11.28,0,.26C224.78,159,230.12,158.07,232.07,152.64Z" style="fill:#263238"></path><path d="M230,136.36c.15,0,.1-.29-.05-.25-4.35,1.11-9.67,2.92-12.59,6.53-3.15,3.91-1.74,8.93-.46,13.27,0,.06.11,0,.09,0-1.24-4.39-2.41-9.77,1-13.51C221,139.17,225.92,137.46,230,136.36Z" style="fill:#263238"></path><path d="M219.75,158.81c1.69,1.3,3.84,5,3.78,8.88-.1,6.62,2.56,5.8,9.27,8.78,5.67,2.53,5.73,9.4,2,12.11,0,0,2.58-3.76-1-6.5-4.35-3.27-16.19-.23-20.42-8C207.83,164.08,219.75,158.81,219.75,158.81Z" style="fill:#263238"></path><path d="M221.73,162.24c-.06-.1.11-.21.18-.11a9.35,9.35,0,0,1,1.42,3.15c.36,1.47.12,2.94.37,4.42.64,3.76,4.92,4.41,8,5.2,4.09,1,7,4.18,6.42,8.58a.05.05,0,0,1-.1,0,7.5,7.5,0,0,0-3.25-7.05c-2.24-1.46-5.06-1.42-7.46-2.48-1.65-.73-3.23-1.77-3.72-3.59a14.48,14.48,0,0,1-.23-3.09A10.46,10.46,0,0,0,221.73,162.24Z" style="fill:#263238"></path><path d="M218.52,159.39s.09,0,0,.07c-2.77,1.89-5.68,3.76-7,7-1.39,3.51-.17,7.5,2.29,10.22,2.76,3,6.41,2.49,10.12,2.44,2.68,0,5.38.14,7.76,1.49.07,0,0,.16-.07.13-3.92-1.69-7.89-1.16-12-1.24a8.2,8.2,0,0,1-7.41-4.61C208.62,168.44,212.65,162.53,218.52,159.39Z" style="fill:#263238"></path><path d="M246.88,119a1.13,1.13,0,0,0-2,1.06A1.13,1.13,0,0,0,246.88,119Z" style="fill:#6FD08C"></path><path d="M247.38,121a1.14,1.14,0,0,0-2,1.07A1.14,1.14,0,0,0,247.38,121Z" style="fill:#6FD08C"></path><path d="M248.23,123a1.14,1.14,0,0,0-2,1.06A1.14,1.14,0,0,0,248.23,123Z" style="fill:#6FD08C"></path><path d="M249.3,124.78a1.14,1.14,0,0,0-2,1.06A1.14,1.14,0,0,0,249.3,124.78Z" style="fill:#6FD08C"></path><path d="M250.69,126.38a1.14,1.14,0,0,0-2,1.06A1.14,1.14,0,0,0,250.69,126.38Z" style="fill:#6FD08C"></path><path d="M252.29,127.66a1.14,1.14,0,0,0-2,1.06A1.14,1.14,0,0,0,252.29,127.66Z" style="fill:#6FD08C"></path><path d="M338.74,327.1c-2.09.74-62.63-.18-64.94-1.61-.27-.16-1.64-11.76-1.64-11.76l5.9-44.87,39.73-.45-6.73,38.35s8.84,3.81,16.15,7.15l0,0a86.18,86.18,0,0,1,9.31,4.62C338.89,320.37,340.82,326.37,338.74,327.1Z" style="fill:#d3766a"></path><path d="M338.74,327.1c-2.08.74-62.64-.18-64.93-1.6-.28-.17-1.65-11.77-1.65-11.77L274,299.9l38.14.83-1.06,6s8.84,3.81,16.15,7.15v0a85.68,85.68,0,0,1,9.32,4.62C338.89,320.38,340.82,326.38,338.74,327.1Z" style="fill:#ebebeb"></path><path d="M338.71,327.18c-2.13.72-63,.79-65.37-.68-.89-.54-1.42-9.42-1.75-20.16V306l39.3-.49,0,.67s23.33,10.4,25.72,12.29S340.84,326.46,338.71,327.18Z" style="fill:#6FD08C"></path><path d="M338,324.81c-10.27-.24-51.72-.23-61.89.31-.08,0-.08.06,0,.07,10.18.46,51.62.12,61.89-.21C338.23,325,338.23,324.82,338,324.81Z" style="fill:#263238"></path><path d="M314.18,306.29c-4.05-.75-9-.12-12.07,2.76-.12.11,0,.28.17.24a57.19,57.19,0,0,1,11.88-2.49A.26.26,0,0,0,314.18,306.29Z" style="fill:#263238"></path><path d="M317.09,308.05c-4-.75-9-.13-12.06,2.76-.12.11,0,.28.17.24a55.93,55.93,0,0,1,11.88-2.49A.26.26,0,0,0,317.09,308.05Z" style="fill:#263238"></path><path d="M320,309.8c-4-.75-9-.12-12.06,2.76-.12.11,0,.28.17.24A57.06,57.06,0,0,1,320,310.31.26.26,0,0,0,320,309.8Z" style="fill:#263238"></path><path d="M314.06,302.1l-42.47.23s12.81-64.66,11.24-66.72c-1.7-2.23-52.77,10.11-66.39-7.2-9.28-11.81-3.35-36.21-3.35-36.21l50.23.65s.07,1.18.11,7c0,0,22.34-2.67,39.78-.42,14.23,1.83,21.5,13.29,21.45,20.74C324.44,253.06,314.06,302.1,314.06,302.1Z" style="fill:#455a64"></path><path d="M313.34,294.58c-4.9-.35-9.8-.44-14.72-.52s-9.81-.09-14.72,0c-2.77.06-5.53.26-8.3.32a.08.08,0,0,0,0,.16c2.47,0,4.93.21,7.4.26s4.87.09,7.31.11c4.91,0,9.82,0,14.72,0,2.77,0,5.53-.07,8.3-.18C313.45,294.78,313.45,294.59,313.34,294.58Z" style="fill:#263238"></path><path d="M246.43,196.53a3,3,0,0,1-.23.52.08.08,0,0,0,0,.1c-.58,1.6-.85,3.32-1.4,4.92a7.79,7.79,0,0,1-3.14,4.2c-3.14,2-6.86,2.89-10.46,3.66-.12,0-.08.19,0,.2a19.83,19.83,0,0,0,6.12-.74,16.09,16.09,0,0,0,5.22-2.31,8,8,0,0,0,3.08-4.34,25.15,25.15,0,0,0,.6-2.84,21.88,21.88,0,0,0,.47-3.33A.16.16,0,0,0,246.43,196.53Z" style="fill:#263238"></path><path d="M278.59,290.62c3.23-15.85,11.58-58.26,10.19-60.39-.66-.4-5.78.09-11.71.65-15.87,1.5-42.45,4-52.69-3.29-10.78-7.68-6.9-31.24-6.73-32.24,0-.22.47-.64.43,0,0,.25-3.61,24.17,6.76,31.57,10,7.13,36.39,4.63,52.16,3.14,7.64-.72,11.35-1.05,12.25-.49,2.43,1.51-7.9,51.31-10.3,61.41C278.9,291.19,278.39,291.61,278.59,290.62Z" style="fill:#263238"></path><path d="M265.1,172.15l2.26,28.38s-45.86-2.3-57.18-3.85c0,0,14.09-45.73,27.18-58.21,6.55-6.24,13.7-5.28,18-.34,1.08,1.25,11.72,16.66,12.72,23.73A13.15,13.15,0,0,1,265.1,172.15Z" style="fill:#ebebeb"></path><path d="M267.37,200.53l-2.27-28.38a13.2,13.2,0,0,0,3-10.29c-1-7.08-11.64-22.48-12.72-23.73a11.48,11.48,0,0,0-1.31-1.3l6.8,21.35L242.54,135a14.12,14.12,0,0,0-5.17,3.46c-13.1,12.47-27.19,58.21-27.19,58.21C221.5,198.23,267.37,200.53,267.37,200.53Z" style="fill:#6FD08C"></path><path d="M214.9,181.58l51.25,3.71-.35-4.53-49.44-3.56C215.9,178.72,215.3,180.18,214.9,181.58Z" style="fill:#ebebeb"></path><path d="M212.4,189.31l54.39,3.92-.37-4.53-52.61-3.79C213.35,186.51,212.77,188,212.4,189.31Z" style="fill:#ebebeb"></path><path d="M245.37,135.84c.07.93,3.41,7.39,7.51,7.84,1.34.15,2.46-7.11,2.46-7.11l.21-.52,2.87-7.24-7.92-7.06-1.16-1s-.65,2-1.44,4.57l-.12.36c0,.15-.09.28-.13.41-.12.38-.25.77-.36,1.16s-.18.58-.26.89-.17.62-.26.93A50.58,50.58,0,0,0,245.37,135.84Z" style="fill:#d3766a"></path><path d="M247.9,125.37a15.62,15.62,0,0,0,7.65,10.68l2.87-7.24-7.92-7.06-1.16-1S248.69,122.83,247.9,125.37Z" style="fill:#263238"></path><path d="M271.85,118.65c-.55,13.66-8.79,14.87-11.73,14.75-2.68-.1-11.77-.82-12.64-14.46s5.65-17.71,11.78-17.78S272.39,105,271.85,118.65Z" style="fill:#d3766a"></path><path d="M269.11,114.59a7.23,7.23,0,0,1-.93-.16,1.51,1.51,0,0,1-.92-.34.48.48,0,0,1,0-.6,1.23,1.23,0,0,1,1.18-.32,1.78,1.78,0,0,1,1.13.58A.52.52,0,0,1,269.11,114.59Z" style="fill:#263238"></path><path d="M259.68,114.44c.32,0,.61-.09.93-.14a1.61,1.61,0,0,0,.93-.32.5.5,0,0,0,0-.6,1.22,1.22,0,0,0-1.17-.35,1.8,1.8,0,0,0-1.15.56A.52.52,0,0,0,259.68,114.44Z" style="fill:#263238"></path><path d="M261.57,118.06s-.07,0-.07.08c0,.93-.17,2-1,2.27,0,0,0,.06,0,0C261.51,120.36,261.72,118.94,261.57,118.06Z" style="fill:#263238"></path><path d="M260.78,117.05c-1.49-.16-1.72,2.83-.34,3S262,117.2,260.78,117.05Z" style="fill:#263238"></path><path d="M260.18,117.17c-.28.15-.56.43-.88.43s-.61-.32-.83-.64c0,0-.05,0-.05,0-.06.57.12,1.18.73,1.31s1-.36,1.18-.92C260.37,117.27,260.29,117.11,260.18,117.17Z" style="fill:#263238"></path><path d="M267,118.25s.07,0,.06.09c-.11.92-.07,2,.74,2.38,0,0,0,.06,0,0C266.74,120.54,266.71,119.11,267,118.25Z" style="fill:#263238"></path><path d="M267.87,117.35c1.5,0,1.36,3,0,3S266.61,117.34,267.87,117.35Z" style="fill:#263238"></path><path d="M268.48,117.58c.23.17.46.47.74.5s.58-.28.81-.58c0,0,0,0,0,0,0,.58-.22,1.17-.78,1.25s-.86-.43-1-1C268.3,117.67,268.39,117.51,268.48,117.58Z" style="fill:#263238"></path><path d="M261,125.61c.16.27.29.62.61.73a2.55,2.55,0,0,0,1,0,0,0,0,0,1,0,.06,1.26,1.26,0,0,1-1.28.17,1,1,0,0,1-.49-1C260.91,125.57,261,125.57,261,125.61Z" style="fill:#263238"></path><path d="M265.41,122.41a19.3,19.3,0,0,1,.06,2.06c0,.06-.16.08-.38.08h0a3.14,3.14,0,0,1-2.95-1.36c0-.07.05-.13.11-.09a4.66,4.66,0,0,0,2.79,1c.05-.18-.26-2.39-.16-2.39a5.73,5.73,0,0,1,1.47.43c-.13-2.92-.72-5.8-.81-8.71a.09.09,0,0,1,.18,0,47.89,47.89,0,0,1,1.26,9.34C267,123.12,265.67,122.54,265.41,122.41Z" style="fill:#263238"></path><path d="M249.61,120.08s-2.42-4.61-4.48-3.8-.61,7.23,1.54,8.36a2.32,2.32,0,0,0,3.23-.85Z" style="fill:#d3766a"></path><path d="M245.59,118.11s-.05,0,0,.06a5.84,5.84,0,0,1,2.54,4,1.28,1.28,0,0,0-1.85-.59s0,.09,0,.09a1.4,1.4,0,0,1,1.49.69,6.47,6.47,0,0,1,.58,1.35c.06.15.33.11.29-.06v0C248.94,121.61,247.73,118.59,245.59,118.11Z" style="fill:#263238"></path><path d="M248.09,118.58c1.48,0,5.66-3.7,6.37-10.81,0,0-1.08,6.34-1.64,7.24s2.34-2.1,3-7.83a23.42,23.42,0,0,0,5.64,3.55c2.64,1,4.31,1.09,4.52.91s-3.68-1.76-4.65-3.1c0,0,6.93,4,10.23,4.49.38.06,1.5-7.81-3.36-11.59s-13.3-.84-15.66,1.09c0,0-2.6.15-5.71,3.72S246.5,118.54,248.09,118.58Z" style="fill:#263238"></path><path d="M273,110.1S271.43,94.71,257.69,96s-12.42,16.69-12.42,16.69Z" style="fill:#6FD08C"></path><rect x="244.17" y="110.3" width="29.9" height="2.19" transform="translate(527.45 198.31) rotate(174.69)" style="fill:#6FD08C"></rect><polygon points="259.24 110.28 265.44 109.7 262.58 94.74 256.38 95.32 259.24 110.28" style="fill:#6FD08C"></polygon><polygon points="259.24 110.28 265.44 109.7 262.58 94.74 256.38 95.32 259.24 110.28" style="opacity:0.1"></polygon><path d="M237.8,150.39c2.35,15.86,11.39,42,15.89,44.42,8.41,4.62,33.77,7.51,42.42,7.28,3.73-.1,6.34-23.25,4.2-26.62-1.26-2-34.36-.92-35.06-1.49-1.08-.87-11.38-18.78-17.76-26.63C238.06,135.78,236.5,141.56,237.8,150.39Z" style="fill:#d3766a"></path><path d="M295.54,175s11.69-.87,18.9-1c4-.07,10.93.42,13.91,1.71,4.46,1.94,21.87,12.91,19.3,17.19-2.33,3.87-16.08-7.45-16.08-7.45s14.89,10.19,11.23,14.34-17.5-10.71-17.5-10.71,15.07,10.82,10.62,14.5c-3.36,2.78-16.65-10-16.65-10s12.88,9.39,9.55,12.4c-3.68,3.33-16.7-7.67-16.7-7.67-9.75,6.22-16.95,5.19-22,3.85C288.93,201.86,295.54,175,295.54,175Z" style="fill:#d3766a"></path><path d="M326.64,181.58c1.79,1.14,3.62,2.27,5.3,3.56s3.33,2.64,4.89,4.08a36.59,36.59,0,0,1,5.53,6.19c-3.14-3.82-9.1-8.53-10.79-9.82s-3.3-2.65-5-3.94A0,0,0,0,1,326.64,181.58Z" style="fill:#263238"></path><path d="M321.87,187.59c2.23,1.54,4.5,3,6.66,4.64s4,3.38,6.07,5.17c.15.13,0,.17-.13,0-2.1-1.7-4.17-3.11-6.29-4.78s-4.18-3.43-6.35-5C321.8,187.61,321.84,187.56,321.87,187.59Z" style="fill:#263238"></path><path d="M316.86,192a60.57,60.57,0,0,1,9.62,7.89c.15.14,0,.17-.18,0-3.15-2.69-5.6-4.81-9.52-7.81C316.72,192.08,316.78,192,316.86,192Z" style="fill:#263238"></path><path d="M258,160.14,240.33,170.4s-4.58-15.9-3.75-25,5-7.42,9.31-2.32S258,160.14,258,160.14Z" style="fill:#ebebeb"></path><path d="M254.93,158c.11-.07.2,0,.09.07a137.44,137.44,0,0,1-14.86,8.54s-.06,0,0-.06C242.38,164.82,253.67,158.74,254.93,158Z" style="fill:#263238"></path><path d="M249.18,147.15c3.08,4.26,6.19,8.84,9.07,13.09.05.08-.78.39-1.1.54-.13.06-.15-.09,0-.16a3.69,3.69,0,0,0,.62-.44c-2.92-4.3-5.82-8.61-8.6-13C249.11,147.15,249.16,147.12,249.18,147.15Z" style="fill:#263238"></path></g><g id="freepik--Boxes--inject-4"><rect x="487.08" y="265.74" width="169.93" height="71.69" style="fill:#6FD08C"></rect><rect x="487.08" y="265.74" width="169.93" height="71.69" style="fill:#263238;opacity:0.1"></rect><rect x="581.75" y="265.74" width="75.25" height="71.69" style="opacity:0.2"></rect><path d="M653.3,332.49q-8.71-7.65-17.27-15.34l-17-15.42-16.8-15.49q-8.36-7.75-16.54-15.56Q594.4,278.31,603,286l17,15.42,16.8,15.48Q645.12,324.67,653.3,332.49Z" style="fill:#6FD08C"></path><path d="M653.3,270.68q-8.19,7.8-16.54,15.56L620,301.73l-17,15.42q-8.55,7.69-17.27,15.34,8.19-7.82,16.54-15.57L619,301.44,636,286Q644.58,278.33,653.3,270.68Z" style="fill:#6FD08C"></path><polygon points="527.13 276.6 528.47 276.6 529.55 275.7 530.55 276.6 531.16 276.6 531.81 276.6 532.74 276.6 533.09 276.28 533.54 276.6 534.66 276.6 534.94 276.6 535.31 276.6 535.47 276.37 535.8 276.6 536.28 276.2 536.81 276.6 537.57 276.6 537.57 265.74 527.13 265.74 527.13 276.6" style="fill:#fff;opacity:0.7000000000000001"></polygon><rect x="501.76" y="325.66" width="0.5" height="7.09" transform="translate(1004.03 658.41) rotate(180)" style="fill:#fff"></rect><rect x="500.56" y="325.66" width="0.5" height="7.09" transform="translate(1001.62 658.41) rotate(180)" style="fill:#fff"></rect><rect x="499.35" y="325.66" width="0.5" height="7.09" transform="translate(999.2 658.41) rotate(180)" style="fill:#fff"></rect><rect x="498.15" y="325.66" width="0.5" height="7.09" transform="translate(996.79 658.41) rotate(180)" style="fill:#fff"></rect><rect x="496.94" y="325.66" width="0.5" height="7.09" transform="translate(994.38 658.41) rotate(180)" style="fill:#fff"></rect><rect x="495.73" y="325.66" width="0.5" height="7.09" transform="translate(991.97 658.41) rotate(180)" style="fill:#fff"></rect><rect x="494.53" y="325.66" width="0.5" height="7.09" transform="translate(989.56 658.41) rotate(180)" style="fill:#fff"></rect><rect x="493.32" y="325.66" width="0.5" height="7.09" transform="translate(987.15 658.41) rotate(180)" style="fill:#fff"></rect><rect x="492.12" y="325.66" width="0.5" height="7.09" transform="translate(984.74 658.41) rotate(180)" style="fill:#fff"></rect><path d="M507.2,332.21l-1.94.53h4.54l-1.93-.54v-2.6c1.38-.19,1.93-1.55,1.93-3.94h-4.54c0,2.38.55,3.75,1.94,3.94Z" style="fill:#fff"></path><polygon points="510.86 329.27 512.04 329.27 512.04 332.74 515.08 332.74 515.08 329.27 516.27 329.27 513.56 325.66 510.86 329.27" style="fill:#fff"></polygon><polygon points="487.08 337.43 487.08 334.69 581.75 328.45 581.75 337.42 487.08 337.43" style="opacity:0.1"></polygon><rect x="489.29" y="194.05" width="100.97" height="71.69" style="fill:#6FD08C"></rect><rect x="489.29" y="194.05" width="100.97" height="71.69" style="fill:#263238;opacity:0.1"></rect><rect x="555.87" y="194.05" width="34.38" height="71.69" style="opacity:0.2"></rect><path d="M587.88,260.8q-3.81-7.65-7.57-15.34L572.85,230l-7.36-15.49q-3.66-7.76-7.25-15.56,3.82,7.63,7.57,15.34l7.46,15.42,7.36,15.49Q584.29,253,587.88,260.8Z" style="fill:#6FD08C"></path><path d="M587.88,199q-3.58,7.8-7.25,15.56L573.27,230l-7.46,15.42q-3.75,7.69-7.57,15.34,3.59-7.8,7.25-15.57l7.36-15.48,7.46-15.42Q584.06,206.64,587.88,199Z" style="fill:#6FD08C"></path><polygon points="515.84 208.75 517.18 208.75 518.26 207.52 519.26 208.75 519.88 208.75 520.52 208.75 521.45 208.75 521.8 208.31 522.25 208.75 523.38 208.75 523.65 208.75 524.02 208.75 524.18 208.44 524.52 208.75 524.99 208.2 525.52 208.75 526.28 208.75 526.28 194.05 515.84 194.05 515.84 208.75" style="fill:#fff;opacity:0.7000000000000001"></polygon><rect x="503.97" y="253.97" width="0.5" height="7.09" transform="translate(1008.44 515.03) rotate(180)" style="fill:#fff"></rect><rect x="502.76" y="253.97" width="0.5" height="7.09" transform="translate(1006.03 515.03) rotate(180)" style="fill:#fff"></rect><rect x="501.56" y="253.97" width="0.5" height="7.09" transform="translate(1003.62 515.03) rotate(180)" style="fill:#fff"></rect><rect x="500.35" y="253.97" width="0.5" height="7.09" transform="translate(1001.2 515.03) rotate(180)" style="fill:#fff"></rect><rect x="499.14" y="253.97" width="0.5" height="7.09" transform="translate(998.79 515.03) rotate(180)" style="fill:#fff"></rect><rect x="497.94" y="253.97" width="0.5" height="7.09" transform="translate(996.38 515.03) rotate(180)" style="fill:#fff"></rect><rect x="496.73" y="253.97" width="0.5" height="7.09" transform="translate(993.97 515.03) rotate(180)" style="fill:#fff"></rect><rect x="495.53" y="253.97" width="0.5" height="7.09" transform="translate(991.56 515.03) rotate(180)" style="fill:#fff"></rect><rect x="494.32" y="253.97" width="0.5" height="7.09" transform="translate(989.15 515.03) rotate(180)" style="fill:#fff"></rect><path d="M509.4,260.52l-1.93.53H512l-1.94-.54v-2.6c1.39-.19,1.94-1.55,1.94-3.94h-4.54c0,2.38.55,3.75,1.93,3.94Z" style="fill:#fff"></path><polygon points="513.06 257.59 514.25 257.59 514.25 261.06 517.28 261.06 517.28 257.59 518.47 257.59 515.76 253.97 513.06 257.59" style="fill:#fff"></polygon><polygon points="489.29 265.74 489.29 263 555.87 256.76 555.87 265.73 489.29 265.74" style="opacity:0.1"></polygon><rect x="561.07" y="194.05" width="100.97" height="71.69" style="fill:#6FD08C"></rect><rect x="561.07" y="194.05" width="100.97" height="71.69" style="fill:#263238;opacity:0.1"></rect><rect x="627.65" y="194.05" width="34.38" height="71.69" style="opacity:0.2"></rect><path d="M659.66,260.8q-3.81-7.65-7.56-15.34L644.64,230l-7.37-15.49Q633.61,206.8,630,199q3.83,7.63,7.57,15.34l7.46,15.42,7.36,15.49Q656.07,253,659.66,260.8Z" style="fill:#6FD08C"></path><path d="M659.66,199q-3.58,7.8-7.25,15.56L645.05,230l-7.46,15.42q-3.75,7.69-7.57,15.34,3.6-7.8,7.25-15.57l7.37-15.48,7.46-15.42Q655.84,206.64,659.66,199Z" style="fill:#6FD08C"></path><polygon points="587.62 208.75 588.96 208.75 590.04 207.52 591.05 208.75 591.66 208.75 592.31 208.75 593.23 208.75 593.59 208.31 594.04 208.75 595.16 208.75 595.43 208.75 595.81 208.75 595.97 208.44 596.3 208.75 596.77 208.2 597.31 208.75 598.06 208.75 598.06 194.05 587.62 194.05 587.62 208.75" style="fill:#fff;opacity:0.7000000000000001"></polygon><rect x="575.75" y="253.97" width="0.5" height="7.09" transform="translate(1152 515.03) rotate(180)" style="fill:#fff"></rect><rect x="574.54" y="253.97" width="0.5" height="7.09" transform="translate(1149.59 515.03) rotate(180)" style="fill:#fff"></rect><rect x="573.34" y="253.97" width="0.5" height="7.09" transform="translate(1147.18 515.03) rotate(180)" style="fill:#fff"></rect><rect x="572.13" y="253.97" width="0.5" height="7.09" transform="translate(1144.77 515.03) rotate(180)" style="fill:#fff"></rect><rect x="570.93" y="253.97" width="0.5" height="7.09" transform="translate(1142.36 515.03) rotate(180)" style="fill:#fff"></rect><rect x="569.72" y="253.97" width="0.5" height="7.09" transform="translate(1139.95 515.03) rotate(180)" style="fill:#fff"></rect><rect x="568.52" y="253.97" width="0.5" height="7.09" transform="translate(1137.53 515.03) rotate(180)" style="fill:#fff"></rect><rect x="567.31" y="253.97" width="0.5" height="7.09" transform="translate(1135.12 515.03) rotate(180)" style="fill:#fff"></rect><rect x="566.1" y="253.97" width="0.5" height="7.09" transform="translate(1132.71 515.03) rotate(180)" style="fill:#fff"></rect><path d="M581.18,260.52l-1.93.53h4.54l-1.94-.54v-2.6c1.39-.19,1.94-1.55,1.94-3.94h-4.54c0,2.38.55,3.75,1.93,3.94Z" style="fill:#fff"></path><polygon points="584.85 257.59 586.03 257.59 586.03 261.06 589.06 261.06 589.06 257.59 590.25 257.59 587.55 253.97 584.85 257.59" style="fill:#fff"></polygon><polygon points="561.07 265.74 561.07 263 627.65 256.76 627.65 265.73 561.07 265.74" style="opacity:0.1"></polygon><rect x="503.97" y="122.36" width="122.07" height="71.69" style="fill:#6FD08C"></rect><rect x="503.97" y="122.36" width="122.07" height="71.69" style="fill:#263238;opacity:0.1"></rect><rect x="591.66" y="122.36" width="34.38" height="71.69" style="opacity:0.2"></rect><path d="M623.67,189.11q-3.82-7.65-7.57-15.34l-7.46-15.42-7.36-15.49q-3.67-7.76-7.25-15.56,3.81,7.65,7.56,15.34l7.46,15.42,7.37,15.49Q620.08,181.31,623.67,189.11Z" style="fill:#6FD08C"></path><path d="M623.67,127.3q-3.6,7.8-7.25,15.56l-7.37,15.49-7.46,15.42q-3.74,7.69-7.56,15.34,3.59-7.8,7.25-15.56l7.36-15.49,7.46-15.42Q619.85,134.95,623.67,127.3Z" style="fill:#6FD08C"></path><polygon points="542.59 137.06 543.94 137.06 545.02 135.84 546.02 137.06 546.63 137.06 547.28 137.06 548.2 137.06 548.56 136.62 549.01 137.06 550.13 137.06 550.41 137.06 550.78 137.06 550.94 136.75 551.27 137.06 551.75 136.51 552.28 137.06 553.03 137.06 553.03 122.36 542.59 122.36 542.59 137.06" style="fill:#fff;opacity:0.7000000000000001"></polygon><rect x="518.65" y="182.28" width="0.5" height="7.09" transform="translate(1037.8 371.65) rotate(180)" style="fill:#fff"></rect><rect x="517.44" y="182.28" width="0.5" height="7.09" transform="translate(1035.39 371.65) rotate(180)" style="fill:#fff"></rect><rect x="516.24" y="182.28" width="0.5" height="7.09" transform="translate(1032.98 371.65) rotate(180)" style="fill:#fff"></rect><rect x="515.03" y="182.28" width="0.5" height="7.09" transform="translate(1030.57 371.65) rotate(180)" style="fill:#fff"></rect><rect x="513.83" y="182.28" width="0.5" height="7.09" transform="translate(1028.15 371.65) rotate(180)" style="fill:#fff"></rect><rect x="512.62" y="182.28" width="0.5" height="7.09" transform="translate(1025.74 371.65) rotate(180)" style="fill:#fff"></rect><rect x="511.41" y="182.28" width="0.5" height="7.09" transform="translate(1023.33 371.65) rotate(180)" style="fill:#fff"></rect><rect x="510.21" y="182.28" width="0.5" height="7.09" transform="translate(1020.92 371.65) rotate(180)" style="fill:#fff"></rect><rect x="509" y="182.28" width="0.5" height="7.09" transform="translate(1018.51 371.65) rotate(180)" style="fill:#fff"></rect><path d="M524.08,188.83l-1.93.54h4.54l-1.94-.55v-2.6c1.39-.18,1.94-1.55,1.94-3.94h-4.54c0,2.38.55,3.76,1.93,3.94Z" style="fill:#fff"></path><polygon points="527.74 185.9 528.93 185.9 528.93 189.37 531.96 189.37 531.96 185.9 533.15 185.9 530.45 182.28 527.74 185.9" style="fill:#fff"></polygon><polygon points="503.97 194.05 503.97 191.32 591.66 185.07 591.66 194.04 503.97 194.05" style="opacity:0.1"></polygon><rect x="494.93" y="340.67" width="13.47" height="11.97" style="fill:#6FD08C"></rect><rect x="494.93" y="340.67" width="13.47" height="11.97" style="opacity:0.30000000000000004"></rect><polygon points="508.39 343.31 494.93 344.94 494.93 340.67 508.39 340.67 508.39 343.31" style="opacity:0.30000000000000004"></polygon><rect x="565.34" y="340.67" width="13.47" height="11.97" style="fill:#6FD08C"></rect><rect x="565.34" y="340.67" width="13.47" height="11.97" style="opacity:0.30000000000000004"></rect><polygon points="578.81 343.31 565.34 344.94 565.34 340.67 578.81 340.67 578.81 343.31" style="opacity:0.30000000000000004"></polygon><rect x="635.76" y="340.67" width="13.47" height="11.97" style="fill:#6FD08C"></rect><rect x="635.76" y="340.67" width="13.47" height="11.97" style="opacity:0.30000000000000004"></rect><polygon points="649.23 343.31 635.76 344.94 635.76 340.67 649.23 340.67 649.23 343.31" style="opacity:0.30000000000000004"></polygon><rect x="487.51" y="337.43" width="169.14" height="3.24" style="fill:#6FD08C"></rect><rect x="487.51" y="337.43" width="169.14" height="3.24" style="opacity:0.30000000000000004"></rect><rect x="487.51" y="352.64" width="169.14" height="3.24" style="fill:#6FD08C"></rect><rect x="487.51" y="352.64" width="169.14" height="3.24" style="opacity:0.30000000000000004"></rect></g></svg>